<svg width="1920" height="1024" viewBox="0 0 1920 1024" fill="none" xmlns="http://www.w3.org/2000/svg">
<rect width="1920" height="1024" fill="black"/>
<mask id="mask0" style="mask-type:alpha" maskUnits="userSpaceOnUse" x="0" y="0" width="1920" height="1024">
<rect width="1920" height="1024" fill="black"/>
</mask>
<g mask="url(#mask0)">
<g filter="url(#filter0_f)">
<g opacity="0.15">
<path d="M540.651 385.508L428.255 204.14L526.346 25.582L540.651 -192.315L478.322 -511.113L574.626 -464.622L692.643 -393.352L816.79 -317.739C816.79 -317.739 889.082 -344.05 953.455 -341.496C1029.07 -338.431 1086.03 -314.419 1086.03 -314.419L1183.1 -381.601L1313.38 -443.164L1410.71 -513.412L1361.66 -278.911L1383.37 -33.9373L1464.6 199.542L1319.26 406.199L1220.4 565.853L1059.98 697.409L955.754 718.1L786.647 665.222L668.886 538.01L540.651 385.508Z" fill="white"/>
<path d="M1486.32 83.569C1484.28 -6.85944 1407.9 -13.2456 1407.9 -13.2456C1438.29 -39.0458 1478.4 -40.5785 1478.4 -40.5785C1465.12 -92.6898 1412.49 -120.023 1412.49 -120.023C1416.07 -167.28 1392.83 -196.401 1392.83 -196.401C1431.4 -204.065 1447.75 -230.376 1447.75 -230.376C1437.27 -246.214 1404.83 -254.643 1404.83 -254.643C1456.18 -275.335 1439.06 -331.789 1439.06 -331.789C1436.76 -331.278 1434.21 -330.511 1431.91 -329.234C1446.47 -384.155 1448.51 -502.938 1414.28 -541C1358.08 -528.228 1293.2 -479.948 1246.96 -433.712C1246.96 -433.712 1140.7 -393.862 1068.66 -328.468C1068.66 -328.468 993.05 -347.115 933.02 -347.115C872.989 -347.115 797.377 -328.468 797.377 -328.468C725.085 -393.862 619.074 -433.712 619.074 -433.712C572.838 -479.948 507.955 -528.228 451.756 -541C417.782 -502.938 419.57 -384.155 434.131 -329.234C431.831 -330.256 429.277 -331.278 426.978 -331.789C426.978 -331.789 409.863 -275.59 461.208 -254.643C461.208 -254.643 428.766 -246.214 418.293 -230.376C418.293 -230.376 434.641 -204.065 473.214 -196.401C473.214 -196.401 449.713 -167.536 453.545 -120.023C453.545 -120.023 400.922 -92.6898 387.639 -40.5785C387.639 -40.5785 427.744 -39.0458 458.143 -13.2456C458.143 -13.2456 381.764 -6.85944 379.72 83.569C379.72 83.569 398.368 63.8995 420.336 59.046C420.336 59.046 378.188 83.569 388.405 161.736C388.405 161.736 363.882 237.348 408.075 328.799C408.075 328.799 401.689 406.199 428 445.027C428 445.027 418.548 464.952 412.162 471.338C412.162 471.338 452.778 476.192 491.606 431.744C491.606 431.744 488.03 527.026 546.272 551.804C546.272 551.804 545.761 494.328 569.007 477.724C569.007 477.724 597.872 555.125 635.423 579.903C635.423 579.903 606.047 578.371 588.676 582.969C588.676 582.969 641.043 609.024 725.341 661.391C779.751 695.11 864.049 766.125 933.275 771.744C1002.25 766.125 1086.54 695.366 1141.21 661.391C1225.25 609.024 1277.87 582.969 1277.87 582.969C1260.5 578.115 1231.13 579.903 1231.13 579.903C1268.42 555.125 1297.54 477.724 1297.54 477.724C1320.79 494.584 1320.28 551.804 1320.28 551.804C1378.78 527.026 1374.94 431.744 1374.94 431.744C1413.77 475.936 1454.39 471.338 1454.39 471.338C1448 464.952 1438.55 445.027 1438.55 445.027C1464.86 406.199 1458.48 328.799 1458.48 328.799C1502.67 237.348 1478.14 161.736 1478.14 161.736C1488.36 83.569 1446.21 59.046 1446.21 59.046C1467.93 63.8995 1486.32 83.569 1486.32 83.569ZM1293.71 148.453C1342.25 169.91 1358.85 229.43 1358.85 229.43C1298.82 192.134 1225.76 215.124 1225.76 215.124C1287.84 229.94 1316.7 266.725 1316.7 266.725C1273.53 241.946 1217.33 256.762 1217.33 256.762C1272 304.02 1247.73 388.829 1247.73 388.829C1235.21 286.65 1114.64 271.067 1114.64 271.067C1152.45 288.438 1174.42 351.278 1174.42 351.278C1174.42 351.278 1108 286.65 1056.91 302.487C1056.91 302.487 1014.25 316.282 1008.89 360.729C1008.89 360.729 1071.47 419.482 1085.78 458.055C1094.46 481.556 1104.42 509.911 1130.22 545.673C1156.03 581.436 1112.34 628.694 1058.19 647.852C1017.06 662.157 966.483 650.407 944.515 645.809C944.77 638.656 947.58 594.208 959.586 582.202C972.614 569.175 993.05 570.707 998.925 582.202C998.925 582.202 1030.6 578.371 1035.96 544.652C1041.58 511.188 1034.18 462.142 933.02 462.142C831.862 462.142 824.71 511.188 830.33 544.652C835.949 578.115 867.369 582.202 867.369 582.202C873.245 570.707 893.936 569.175 906.708 582.202C918.714 594.208 921.524 638.656 921.78 645.809C899.811 650.151 849.233 662.157 808.106 647.852C753.951 628.949 710.269 581.436 736.069 545.673C761.87 509.911 771.832 481.556 780.517 458.055C794.822 419.482 857.407 360.729 857.407 360.729C851.787 316.282 809.383 302.487 809.383 302.487C758.038 286.394 691.877 351.278 691.877 351.278C691.877 351.278 713.59 288.438 751.652 271.067C751.652 271.067 631.081 286.905 618.564 388.829C618.564 388.829 594.296 304.02 648.962 256.762C648.962 256.762 592.763 241.946 549.593 266.725C549.593 266.725 578.458 229.94 640.532 215.124C640.532 215.124 567.474 191.879 507.444 229.43C507.444 229.43 524.303 169.91 572.583 148.453C572.583 148.453 499.014 158.415 455.844 201.586C455.844 201.586 491.862 85.6125 617.031 65.1768C617.031 65.1768 626.993 73.3511 643.853 85.3571C646.407 100.684 657.136 150.241 691.111 179.362C731.727 214.103 772.343 195.455 814.747 214.613C846.167 228.919 857.663 260.083 857.663 260.083C857.663 260.083 859.451 203.629 820.367 175.786C820.367 175.786 745.776 121.886 719.976 69.7748C682.425 -6.09308 625.461 -17.8436 606.558 -23.7189C560.832 -38.2794 553.68 -104.951 573.094 -156.552C604.003 -238.295 691.622 -250.301 691.622 -250.301C691.622 -250.301 669.653 -262.307 642.32 -262.307C642.32 -262.307 582.035 -407.146 489.052 -481.992C513.83 -474.328 552.658 -455.17 602.981 -408.423C602.981 -408.423 715.123 -372.916 797.888 -299.858C797.888 -299.858 865.326 -333.066 933.53 -333.066C1001.73 -333.066 1069.17 -299.858 1069.17 -299.858C1151.68 -372.916 1264.08 -408.423 1264.08 -408.423C1314.4 -455.17 1353.23 -474.328 1378.01 -481.992C1285.03 -407.146 1224.74 -262.307 1224.74 -262.307C1197.41 -262.307 1175.44 -250.301 1175.44 -250.301C1175.44 -250.301 1263.06 -238.295 1293.97 -156.552C1313.38 -105.207 1306.23 -38.5349 1260.5 -23.7189C1241.6 -17.8436 1184.89 -6.09308 1147.08 69.7748C1121.28 121.886 1046.69 175.786 1046.69 175.786C1007.61 203.885 1009.4 260.083 1009.4 260.083C1009.4 260.083 1020.89 228.919 1052.31 214.613C1094.46 195.455 1135.08 214.103 1175.95 179.362C1209.92 150.241 1220.65 100.684 1223.21 85.3571C1240.07 73.3511 1250.03 65.1768 1250.03 65.1768C1375.2 85.6125 1411.22 201.586 1411.22 201.586C1367.54 158.415 1293.71 148.453 1293.71 148.453ZM675.273 106.559C709.247 137.724 786.393 172.72 786.393 172.72C786.393 172.72 746.287 202.097 708.737 178.595C677.317 158.671 674.507 122.652 675.273 106.559ZM1157.56 178.34C1120.01 201.841 1079.9 172.465 1079.9 172.465C1079.9 172.465 1157.05 137.468 1191.02 106.304C1191.79 122.652 1188.98 158.671 1157.56 178.34Z" fill="#00CCFF"/>
<path d="M1531.28 83.569C1529.23 -6.85944 1452.85 -13.2456 1452.85 -13.2456C1483.25 -39.0458 1523.36 -40.5785 1523.36 -40.5785C1510.07 -92.6898 1457.45 -120.023 1457.45 -120.023C1461.03 -167.28 1437.78 -196.401 1437.78 -196.401C1476.36 -204.065 1492.7 -230.376 1492.7 -230.376C1482.23 -246.214 1449.79 -254.643 1449.79 -254.643C1501.13 -275.335 1484.02 -331.789 1484.02 -331.789C1481.72 -331.278 1479.17 -330.511 1476.87 -329.234C1491.43 -384.155 1493.47 -502.938 1459.24 -541C1403.04 -528.228 1338.16 -479.948 1291.92 -433.712C1291.92 -433.712 1185.66 -393.862 1113.62 -328.468C1113.62 -328.468 1038.01 -347.115 977.978 -347.115C917.947 -347.115 842.335 -328.468 842.335 -328.468C770.043 -393.862 664.033 -433.712 664.033 -433.712C617.797 -479.948 552.913 -528.228 496.714 -541C462.74 -502.938 464.528 -384.155 479.089 -329.234C476.79 -330.256 474.235 -331.278 471.936 -331.789C471.936 -331.789 454.821 -275.59 506.166 -254.643C506.166 -254.643 473.724 -246.214 463.251 -230.376C463.251 -230.376 479.599 -204.065 518.172 -196.401C518.172 -196.401 494.671 -167.536 498.503 -120.023C498.503 -120.023 445.88 -92.6898 432.597 -40.5785C432.597 -40.5785 472.702 -39.0458 503.101 -13.2456C503.101 -13.2456 426.722 -6.85944 424.678 83.569C424.678 83.569 443.326 63.8995 465.294 59.046C465.294 59.046 423.146 83.569 433.363 161.736C433.363 161.736 408.84 237.348 453.033 328.799C453.033 328.799 446.647 406.199 472.958 445.027C472.958 445.027 463.506 464.952 457.12 471.338C457.12 471.338 497.736 476.192 536.564 431.744C536.564 431.744 532.988 527.026 591.23 551.804C591.23 551.804 590.719 494.328 613.965 477.724C613.965 477.724 642.83 555.125 680.381 579.903C680.381 579.903 651.005 578.371 633.634 582.969C633.634 582.969 686.001 609.024 770.299 661.391C824.709 695.11 909.007 766.125 978.233 771.744C1047.2 766.125 1131.5 695.366 1186.17 661.391C1270.21 609.024 1322.83 582.969 1322.83 582.969C1305.46 578.115 1276.08 579.903 1276.08 579.903C1313.38 555.125 1342.5 477.724 1342.5 477.724C1365.75 494.584 1365.24 551.804 1365.24 551.804C1423.73 527.026 1419.9 431.744 1419.9 431.744C1458.73 475.936 1499.35 471.338 1499.35 471.338C1492.96 464.952 1483.51 445.027 1483.51 445.027C1509.82 406.199 1503.43 328.799 1503.43 328.799C1547.63 237.348 1523.1 161.736 1523.1 161.736C1533.32 83.569 1491.17 59.046 1491.17 59.046C1512.63 63.8995 1531.28 83.569 1531.28 83.569ZM1338.67 148.453C1387.2 169.91 1403.81 229.43 1403.81 229.43C1343.78 192.134 1270.72 215.124 1270.72 215.124C1332.79 229.94 1361.66 266.725 1361.66 266.725C1318.49 241.946 1262.29 256.762 1262.29 256.762C1316.96 304.276 1292.69 388.829 1292.69 388.829C1280.17 286.65 1159.6 271.067 1159.6 271.067C1197.41 288.438 1219.38 351.278 1219.38 351.278C1219.38 351.278 1152.96 286.65 1101.87 302.487C1101.87 302.487 1059.21 316.282 1053.85 360.729C1053.85 360.729 1116.43 419.482 1130.74 458.055C1139.42 481.556 1149.38 509.911 1175.18 545.673C1200.98 581.436 1157.3 628.694 1103.15 647.852C1062.02 662.157 1011.44 650.407 989.473 645.809C989.728 638.656 992.538 594.208 1004.54 582.202C1017.57 569.175 1038.01 570.707 1043.88 582.202C1043.88 582.202 1075.56 578.371 1080.92 544.652C1086.54 511.188 1079.13 462.142 977.978 462.142C876.82 462.142 869.668 511.188 875.032 544.652C880.397 578.115 912.072 582.202 912.072 582.202C917.947 570.707 938.639 569.175 951.411 582.202C963.417 594.208 966.227 638.656 966.482 645.809C944.514 650.151 893.935 662.157 852.808 647.852C798.653 628.949 754.972 581.436 780.772 545.673C806.572 509.911 816.535 481.556 825.22 458.055C839.525 419.482 902.11 360.729 902.11 360.729C896.49 316.282 854.086 302.487 854.086 302.487C802.741 286.394 736.58 351.278 736.58 351.278C736.58 351.278 758.293 288.438 796.354 271.067C796.354 271.067 675.783 286.905 663.266 388.829C663.266 388.829 638.999 304.02 693.664 256.762C693.664 256.762 637.466 241.946 594.295 266.725C594.295 266.725 623.161 229.94 685.235 215.124C685.235 215.124 612.177 191.879 552.147 229.43C552.147 229.43 569.006 169.91 617.286 148.453C617.286 148.453 543.717 158.415 500.546 201.586C500.546 201.586 536.564 85.6125 661.734 65.1768C661.734 65.1768 671.696 73.3511 688.556 85.3571C691.11 100.684 701.839 150.241 735.813 179.362C776.429 214.103 817.046 195.455 859.45 214.613C890.87 228.919 902.365 260.083 902.365 260.083C902.365 260.083 904.153 203.629 865.07 175.786C865.07 175.786 790.479 121.886 764.679 69.7748C727.128 -6.09308 670.163 -17.8436 651.26 -23.7189C605.535 -38.2794 598.383 -104.951 617.797 -156.552C648.706 -238.295 736.324 -250.301 736.324 -250.301C736.324 -250.301 714.356 -262.307 687.023 -262.307C687.023 -262.307 626.737 -407.146 533.754 -481.992C558.533 -474.328 597.361 -455.17 647.684 -408.423C647.684 -408.423 759.825 -372.916 842.59 -299.858C842.59 -299.858 910.029 -333.066 978.233 -333.066C1046.44 -333.066 1113.88 -299.858 1113.88 -299.858C1196.39 -372.916 1308.78 -408.423 1308.78 -408.423C1359.11 -455.17 1397.93 -474.328 1422.71 -481.992C1329.73 -407.146 1269.44 -262.307 1269.44 -262.307C1242.11 -262.307 1220.14 -250.301 1220.14 -250.301C1220.14 -250.301 1307.76 -238.295 1338.67 -156.552C1358.08 -105.207 1350.93 -38.5349 1305.21 -23.7189C1286.3 -17.8436 1229.59 -6.09308 1191.79 69.7748C1165.99 121.886 1091.4 175.786 1091.4 175.786C1052.31 203.885 1054.1 260.083 1054.1 260.083C1054.1 260.083 1065.6 228.919 1097.02 214.613C1139.16 195.455 1179.78 214.103 1220.65 179.362C1254.63 150.241 1265.36 100.684 1267.91 85.3571C1284.77 73.3511 1294.73 65.1768 1294.73 65.1768C1419.9 85.6125 1455.92 201.586 1455.92 201.586C1412.24 158.415 1338.67 148.453 1338.67 148.453ZM719.976 106.559C753.95 137.724 831.095 172.72 831.095 172.72C831.095 172.72 790.99 202.097 753.439 178.595C722.019 158.671 719.209 122.652 719.976 106.559ZM1202.26 178.34C1164.71 201.841 1124.6 172.465 1124.6 172.465C1124.6 172.465 1201.75 137.468 1235.72 106.304C1236.49 122.652 1233.68 158.671 1202.26 178.34Z" fill="#FF4AF7"/>
<path d="M1088.84 -206.108C1088.84 -206.108 1033.41 -185.928 992.539 -43.3884C975.935 14.8536 944.515 31.9685 944.515 31.9685C944.515 31.9685 913.095 14.8536 896.491 -43.3884C855.619 -185.673 800.187 -206.108 800.187 -206.108C831.607 -154.763 835.439 -70.4659 848.211 -21.42C857.407 13.3209 889.083 52.9153 911.051 96.0858C935.83 145.132 944.515 210.526 944.515 210.526C944.515 210.526 952.945 145.132 977.979 96.0858C999.947 52.9153 1031.62 13.0654 1040.82 -21.42C1053.59 -70.2104 1057.42 -154.763 1088.84 -206.108Z" fill="#00CCFF"/>
<path d="M1111.07 -206.108C1111.07 -206.108 1055.64 -185.928 1014.76 -43.3884C998.16 14.8536 966.74 31.9685 966.74 31.9685C966.74 31.9685 935.32 14.8536 918.716 -43.3884C877.844 -185.673 822.412 -206.108 822.412 -206.108C853.832 -154.763 857.664 -70.4659 870.436 -21.42C879.632 13.3209 911.308 52.9153 933.276 96.0858C958.055 145.132 966.74 210.526 966.74 210.526C966.74 210.526 975.17 145.132 1000.2 96.0858C1022.17 52.9153 1053.85 13.0654 1063.04 -21.42C1075.82 -70.2104 1079.9 -154.763 1111.07 -206.108Z" fill="#FF4AF7"/>
<path d="M1099.83 -206.108C1099.83 -206.108 1044.39 -185.928 1003.52 -43.3884C986.918 14.8536 955.498 31.9685 955.498 31.9685C955.498 31.9685 924.078 14.8536 907.473 -43.3884C866.602 -185.673 811.17 -206.108 811.17 -206.108C842.59 -154.763 846.421 -70.4659 859.194 -21.42C868.39 13.3209 900.065 52.9153 922.034 96.0858C946.812 145.132 955.498 210.526 955.498 210.526C955.498 210.526 963.927 145.132 988.961 96.0858C1010.93 52.9153 1042.61 13.0654 1051.8 -21.42C1064.57 -70.2104 1068.66 -154.763 1099.83 -206.108Z" fill="black"/>
<path d="M1508.8 83.569C1506.75 -6.85944 1430.38 -13.2456 1430.38 -13.2456C1460.77 -39.0458 1500.88 -40.5785 1500.88 -40.5785C1487.6 -92.6898 1434.97 -120.023 1434.97 -120.023C1438.55 -167.28 1415.3 -196.401 1415.3 -196.401C1453.88 -204.065 1470.22 -230.376 1470.22 -230.376C1459.75 -246.214 1427.31 -254.643 1427.31 -254.643C1478.65 -275.335 1461.54 -331.789 1461.54 -331.789C1459.24 -331.278 1456.69 -330.511 1454.39 -329.234C1468.95 -384.155 1470.99 -502.938 1436.76 -541C1380.56 -528.228 1315.68 -479.948 1269.44 -433.712C1269.44 -433.712 1163.18 -393.862 1091.14 -328.468C1091.14 -328.468 1015.53 -347.115 955.498 -347.115C895.468 -347.115 819.856 -328.468 819.856 -328.468C747.564 -393.862 641.553 -433.712 641.553 -433.712C595.318 -479.948 530.434 -528.228 474.235 -541C440.261 -502.938 442.049 -384.155 456.61 -329.234C454.311 -330.256 451.756 -331.278 449.457 -331.789C449.457 -331.789 432.342 -275.59 483.687 -254.643C483.687 -254.643 451.245 -246.214 440.772 -230.376C440.772 -230.376 457.12 -204.065 495.693 -196.401C495.693 -196.401 472.192 -167.536 476.024 -120.023C476.024 -120.023 423.401 -92.6898 410.118 -40.5785C410.118 -40.5785 450.223 -39.0458 480.622 -13.2456C480.622 -13.2456 404.243 -6.85944 402.199 83.569C402.199 83.569 420.847 63.8995 442.815 59.046C442.815 59.046 400.667 83.569 410.884 161.736C410.884 161.736 386.361 237.348 430.554 328.799C430.554 328.799 424.168 406.199 450.479 445.027C450.479 445.027 441.027 464.952 434.641 471.338C434.641 471.338 475.257 476.192 514.085 431.744C514.085 431.744 510.509 527.026 568.751 551.804C568.751 551.804 568.24 494.328 591.486 477.724C591.486 477.724 620.351 555.125 657.902 579.903C657.902 579.903 628.526 578.371 611.155 582.969C611.155 582.969 663.522 609.024 747.82 661.391C802.23 695.11 886.528 766.125 955.754 771.744C1024.72 766.125 1109.02 695.366 1163.69 661.391C1247.73 609.024 1300.35 582.969 1300.35 582.969C1282.98 578.115 1253.61 579.903 1253.61 579.903C1290.9 555.125 1320.02 477.724 1320.02 477.724C1343.27 494.584 1342.76 551.804 1342.76 551.804C1401.25 527.026 1397.42 431.744 1397.42 431.744C1436.25 475.936 1476.87 471.338 1476.87 471.338C1470.48 464.952 1461.03 445.027 1461.03 445.027C1487.34 406.199 1480.95 328.799 1480.95 328.799C1525.15 237.348 1500.62 161.736 1500.62 161.736C1510.84 83.569 1468.69 59.046 1468.69 59.046C1490.15 63.8995 1508.8 83.569 1508.8 83.569ZM1316.19 148.453C1364.73 169.91 1381.33 229.43 1381.33 229.43C1321.3 192.134 1248.24 215.124 1248.24 215.124C1310.31 229.94 1339.18 266.725 1339.18 266.725C1296.01 241.946 1239.81 256.762 1239.81 256.762C1294.48 304.02 1270.21 388.829 1270.21 388.829C1257.69 286.65 1137.12 271.067 1137.12 271.067C1174.93 288.438 1196.9 351.278 1196.9 351.278C1196.9 351.278 1130.48 286.65 1079.39 302.487C1079.39 302.487 1036.73 316.282 1031.37 360.729C1031.37 360.729 1093.95 419.482 1108.26 458.055C1116.94 481.556 1126.9 509.911 1152.7 545.673C1178.5 581.436 1134.82 628.694 1080.67 647.852C1039.54 662.157 988.962 650.407 966.994 645.809C967.249 638.656 970.059 594.208 982.065 582.202C995.093 569.175 1015.53 570.707 1021.4 582.202C1021.4 582.202 1053.08 578.371 1058.44 544.652C1064.06 511.188 1056.66 462.142 955.498 462.142C854.341 462.142 847.189 511.188 852.553 544.652C858.173 578.115 889.593 582.202 889.593 582.202C895.468 570.707 916.159 569.175 928.932 582.202C940.938 594.208 943.748 638.656 944.003 645.809C922.035 650.151 871.456 662.157 830.329 647.852C776.174 628.949 732.493 581.436 758.293 545.673C784.093 509.911 794.056 481.556 802.741 458.055C817.046 419.482 879.63 360.729 879.63 360.729C874.011 316.282 831.606 302.487 831.606 302.487C780.261 286.394 714.101 351.278 714.101 351.278C714.101 351.278 735.814 288.438 773.875 271.067C773.875 271.067 653.304 286.905 640.787 388.829C640.787 388.829 616.52 304.02 671.185 256.762C671.185 256.762 614.987 241.946 571.816 266.725C571.816 266.725 600.682 229.94 662.756 215.124C662.756 215.124 589.698 191.879 529.668 229.43C529.668 229.43 546.527 169.91 594.807 148.453C594.807 148.453 521.238 158.415 478.067 201.586C478.067 201.586 514.085 85.6125 639.254 65.1768C639.254 65.1768 649.217 73.3511 666.076 85.3571C668.631 100.684 679.36 150.241 713.334 179.362C753.95 214.103 794.566 195.455 836.971 214.613C868.391 228.919 879.886 260.083 879.886 260.083C879.886 260.083 881.674 203.629 842.591 175.786C842.591 175.786 768 121.886 742.2 69.7748C704.649 -6.09308 647.684 -17.8436 628.781 -23.7189C583.056 -38.2794 575.903 -104.951 595.317 -156.552C626.227 -238.295 713.845 -250.301 713.845 -250.301C713.845 -250.301 691.877 -262.307 664.544 -262.307C664.544 -262.307 604.258 -407.146 511.275 -481.992C536.054 -474.328 574.882 -455.17 625.205 -408.423C625.205 -408.423 737.346 -372.916 820.111 -299.858C820.111 -299.858 887.549 -333.066 955.754 -333.066C1023.96 -333.066 1091.4 -299.858 1091.4 -299.858C1173.91 -372.916 1286.3 -408.423 1286.3 -408.423C1336.63 -455.17 1375.45 -474.328 1400.23 -481.992C1307.25 -407.146 1246.96 -262.307 1246.96 -262.307C1219.63 -262.307 1197.66 -250.301 1197.66 -250.301C1197.66 -250.301 1285.28 -238.295 1316.19 -156.552C1335.6 -105.207 1328.45 -38.5349 1282.73 -23.7189C1263.82 -17.8436 1207.11 -6.09308 1169.31 69.7748C1143.51 121.886 1068.92 175.786 1068.92 175.786C1029.83 203.885 1031.62 260.083 1031.62 260.083C1031.62 260.083 1043.12 228.919 1074.54 214.613C1116.69 195.455 1157.3 214.103 1198.17 179.362C1232.15 150.241 1242.88 100.684 1245.43 85.3571C1262.29 73.3511 1272.25 65.1768 1272.25 65.1768C1397.42 85.6125 1433.44 201.586 1433.44 201.586C1389.76 158.415 1316.19 148.453 1316.19 148.453ZM697.496 106.559C731.471 137.724 808.616 172.72 808.616 172.72C808.616 172.72 768.511 202.097 730.96 178.595C699.54 158.671 696.986 122.652 697.496 106.559ZM1179.78 178.34C1142.23 201.841 1102.13 172.465 1102.13 172.465C1102.13 172.465 1179.27 137.468 1213.24 106.304C1214.01 122.652 1211.46 158.671 1179.78 178.34Z" fill="black"/>
<path d="M1173.14 178.34C1135.59 201.841 1095.48 172.465 1095.48 172.465C1095.48 172.465 1172.63 137.468 1206.6 106.304C1207.37 122.652 1204.56 158.671 1173.14 178.34Z" fill="#00CCFF"/>
<path d="M801.976 172.463C801.976 172.463 761.871 201.84 724.32 178.339C692.9 158.669 690.09 122.651 690.856 106.558C724.831 137.722 801.976 172.463 801.976 172.463Z" fill="#00CCFF"/>
<path d="M1186.68 178.34C1149.13 201.841 1109.02 172.465 1109.02 172.465C1109.02 172.465 1186.17 137.468 1220.14 106.304C1220.65 122.652 1218.1 158.671 1186.68 178.34Z" fill="#FF4AF7"/>
<path d="M815.513 172.463C815.513 172.463 775.407 201.84 737.857 178.339C706.437 158.669 703.627 122.651 704.393 106.558C738.112 137.722 815.513 172.463 815.513 172.463Z" fill="#FF4AF7"/>
<path d="M1179.78 178.34C1142.23 201.841 1102.12 172.465 1102.12 172.465C1102.12 172.465 1179.27 137.468 1213.24 106.304C1214.01 122.652 1211.46 158.671 1179.78 178.34Z" fill="white"/>
<path d="M808.617 172.463C808.617 172.463 768.512 201.84 730.961 178.339C699.541 158.669 696.731 122.651 697.498 106.558C731.472 137.722 808.617 172.463 808.617 172.463Z" fill="white"/>
</g>
<g opacity="0.15">
<path d="M1663.47 567.949L1582.32 436.999L1653.15 308.078L1663.47 150.755L1618.47 -79.4211L1688 -45.8538L1773.21 5.60377L1862.85 60.1967C1862.85 60.1967 1915.05 41.1999 1961.52 43.0442C2016.12 45.2575 2057.25 62.5944 2057.25 62.5944L2127.33 14.0878L2221.39 -30.3612L2291.66 -81.0811L2256.25 88.231L2271.93 265.105L2330.58 433.679L2225.64 582.888L2154.26 698.16L2038.43 793.145L1963.18 808.084L1841.09 769.906L1756.06 678.057L1663.47 567.949Z" fill="white"/>
<path d="M2346.26 349.945C2344.78 284.655 2289.63 280.044 2289.63 280.044C2311.58 261.416 2340.54 260.31 2340.54 260.31C2330.95 222.685 2292.95 202.95 2292.95 202.95C2295.54 168.83 2278.75 147.804 2278.75 147.804C2306.6 142.271 2318.41 123.274 2318.41 123.274C2310.85 111.839 2287.42 105.753 2287.42 105.753C2324.49 90.8132 2312.14 50.0529 2312.14 50.0529C2310.48 50.4218 2308.63 50.9751 2306.97 51.8972C2317.48 12.2436 2318.96 -73.5191 2294.25 -101C2253.67 -91.7782 2206.82 -56.9198 2173.44 -23.537C2173.44 -23.537 2096.72 5.23501 2044.7 52.4506C2044.7 52.4506 1990.11 38.9868 1946.77 38.9868C1903.43 38.9868 1848.83 52.4506 1848.83 52.4506C1796.64 5.23501 1720.1 -23.537 1720.1 -23.537C1686.71 -56.9198 1639.87 -91.7782 1599.29 -101C1574.76 -73.5191 1576.05 12.2436 1586.57 51.8972C1584.91 51.1595 1583.06 50.4218 1581.4 50.0529C1581.4 50.0529 1569.04 90.6288 1606.12 105.753C1606.12 105.753 1582.69 111.839 1575.13 123.274C1575.13 123.274 1586.93 142.271 1614.78 147.804C1614.78 147.804 1597.82 168.645 1600.58 202.95C1600.58 202.95 1562.59 222.685 1553 260.31C1553 260.31 1581.95 261.416 1603.9 280.044C1603.9 280.044 1548.76 284.655 1547.28 349.945C1547.28 349.945 1560.74 335.744 1576.61 332.24C1576.61 332.24 1546.17 349.945 1553.55 406.383C1553.55 406.383 1535.85 460.976 1567.75 527.004C1567.75 527.004 1563.14 582.888 1582.14 610.922C1582.14 610.922 1575.32 625.308 1570.7 629.919C1570.7 629.919 1600.03 633.423 1628.06 601.331C1628.06 601.331 1625.48 670.126 1667.53 688.016C1667.53 688.016 1667.16 646.518 1683.95 634.53C1683.95 634.53 1704.79 690.414 1731.9 708.304C1731.9 708.304 1710.69 707.198 1698.15 710.517C1698.15 710.517 1735.96 729.33 1796.82 767.139C1836.11 791.485 1896.97 842.758 1946.95 846.816C1996.75 842.758 2057.61 791.669 2097.08 767.139C2157.76 729.33 2195.76 710.517 2195.76 710.517C2183.22 707.013 2162.01 708.304 2162.01 708.304C2188.93 690.414 2209.96 634.53 2209.96 634.53C2226.74 646.703 2226.37 688.016 2226.37 688.016C2268.61 670.126 2265.84 601.331 2265.84 601.331C2293.88 633.239 2323.2 629.919 2323.2 629.919C2318.59 625.308 2311.77 610.922 2311.77 610.922C2330.76 582.888 2326.15 527.004 2326.15 527.004C2358.06 460.976 2340.35 406.383 2340.35 406.383C2347.73 349.945 2317.3 332.24 2317.3 332.24C2332.98 335.744 2346.26 349.945 2346.26 349.945ZM2207.19 396.792C2242.23 412.285 2254.22 455.258 2254.22 455.258C2210.88 428.331 2158.13 444.93 2158.13 444.93C2202.95 455.627 2223.79 482.186 2223.79 482.186C2192.62 464.296 2152.05 474.993 2152.05 474.993C2191.52 509.114 2173.99 570.346 2173.99 570.346C2164.96 496.572 2077.9 485.321 2077.9 485.321C2105.2 497.863 2121.06 543.234 2121.06 543.234C2121.06 543.234 2073.11 496.572 2036.22 508.007C2036.22 508.007 2005.42 517.966 2001.55 550.058C2001.55 550.058 2046.73 592.479 2057.06 620.328C2063.33 637.296 2070.53 657.769 2089.15 683.59C2107.78 709.411 2076.24 743.531 2037.14 757.364C2007.45 767.693 1970.93 759.208 1955.07 755.889C1955.25 750.724 1957.28 718.633 1965.95 709.964C1975.36 700.558 1990.11 701.665 1994.35 709.964C1994.35 709.964 2017.22 707.198 2021.1 682.852C2025.15 658.691 2019.81 623.279 1946.77 623.279C1873.73 623.279 1868.57 658.691 1872.63 682.852C1876.68 707.013 1899.37 709.964 1899.37 709.964C1903.61 701.665 1918.55 700.558 1927.77 709.964C1936.44 718.633 1938.47 750.724 1938.65 755.889C1922.79 759.024 1886.27 767.693 1856.58 757.364C1817.48 743.716 1785.94 709.411 1804.57 683.59C1823.2 657.769 1830.39 637.296 1836.66 620.328C1846.99 592.479 1892.18 550.058 1892.18 550.058C1888.12 517.966 1857.5 508.007 1857.5 508.007C1820.43 496.388 1772.66 543.234 1772.66 543.234C1772.66 543.234 1788.34 497.863 1815.82 485.321C1815.82 485.321 1728.77 496.756 1719.73 570.346C1719.73 570.346 1702.21 509.114 1741.68 474.993C1741.68 474.993 1701.1 464.296 1669.93 482.186C1669.93 482.186 1690.77 455.627 1735.59 444.93C1735.59 444.93 1682.84 428.146 1639.5 455.258C1639.5 455.258 1651.67 412.285 1686.53 396.792C1686.53 396.792 1633.41 403.985 1602.24 435.155C1602.24 435.155 1628.25 351.421 1718.62 336.666C1718.62 336.666 1725.81 342.568 1737.99 351.237C1739.83 362.303 1747.58 398.083 1772.11 419.109C1801.43 444.192 1830.76 430.728 1861.37 444.561C1884.06 454.889 1892.36 477.391 1892.36 477.391C1892.36 477.391 1893.65 436.63 1865.43 416.527C1865.43 416.527 1811.58 377.611 1792.95 339.986C1765.84 285.209 1724.71 276.724 1711.06 272.482C1678.05 261.97 1672.88 213.832 1686.9 176.576C1709.22 117.556 1772.48 108.888 1772.48 108.888C1772.48 108.888 1756.62 100.219 1736.88 100.219C1736.88 100.219 1693.35 -4.35564 1626.22 -58.3953C1644.11 -52.8622 1672.14 -39.0296 1708.48 -5.27784C1708.48 -5.27784 1789.44 20.3587 1849.2 73.1074C1849.2 73.1074 1897.89 49.1307 1947.14 49.1307C1996.38 49.1307 2045.07 73.1074 2045.07 73.1074C2104.65 20.3587 2185.8 -5.27784 2185.8 -5.27784C2222.13 -39.0296 2250.17 -52.8622 2268.06 -58.3953C2200.92 -4.35564 2157.39 100.219 2157.39 100.219C2137.66 100.219 2121.8 108.888 2121.8 108.888C2121.8 108.888 2185.06 117.556 2207.38 176.576C2221.39 213.647 2216.23 261.785 2183.22 272.482C2169.57 276.724 2128.62 285.209 2101.33 339.986C2082.7 377.611 2028.84 416.527 2028.84 416.527C2000.62 436.815 2001.92 477.391 2001.92 477.391C2001.92 477.391 2010.21 454.889 2032.9 444.561C2063.33 430.728 2092.66 444.192 2122.17 419.109C2146.7 398.083 2154.44 362.303 2156.29 351.237C2168.46 342.568 2175.65 336.666 2175.65 336.666C2266.03 351.421 2292.03 435.155 2292.03 435.155C2260.49 403.985 2207.19 396.792 2207.19 396.792ZM1760.67 366.545C1785.2 389.046 1840.9 414.314 1840.9 414.314C1840.9 414.314 1811.95 435.524 1784.83 418.556C1762.15 404.17 1760.12 378.164 1760.67 366.545ZM2108.89 418.371C2081.78 435.339 2052.82 414.129 2052.82 414.129C2052.82 414.129 2108.52 388.861 2133.05 366.36C2133.6 378.164 2131.57 404.17 2108.89 418.371Z" fill="#00CCFF"/>
<path d="M2378.72 349.945C2377.24 284.655 2322.1 280.044 2322.1 280.044C2344.04 261.416 2373 260.31 2373 260.31C2363.41 222.685 2325.42 202.95 2325.42 202.95C2328 168.83 2311.21 147.804 2311.21 147.804C2339.06 142.271 2350.87 123.274 2350.87 123.274C2343.31 111.839 2319.88 105.753 2319.88 105.753C2356.95 90.8132 2344.6 50.0529 2344.6 50.0529C2342.94 50.4218 2341.09 50.9751 2339.43 51.8972C2349.95 12.2436 2351.42 -73.5191 2326.71 -101C2286.13 -91.7782 2239.28 -56.9198 2205.9 -23.537C2205.9 -23.537 2129.18 5.23501 2077.16 52.4506C2077.16 52.4506 2022.57 38.9868 1979.23 38.9868C1935.89 38.9868 1881.29 52.4506 1881.29 52.4506C1829.1 5.23501 1752.56 -23.537 1752.56 -23.537C1719.17 -56.9198 1672.33 -91.7782 1631.75 -101C1607.22 -73.5191 1608.51 12.2436 1619.03 51.8972C1617.37 51.1595 1615.52 50.4218 1613.86 50.0529C1613.86 50.0529 1601.5 90.6288 1638.58 105.753C1638.58 105.753 1615.15 111.839 1607.59 123.274C1607.59 123.274 1619.39 142.271 1647.24 147.804C1647.24 147.804 1630.28 168.645 1633.04 202.95C1633.04 202.95 1595.05 222.685 1585.46 260.31C1585.46 260.31 1614.42 261.416 1636.36 280.044C1636.36 280.044 1581.22 284.655 1579.74 349.945C1579.74 349.945 1593.21 335.744 1609.07 332.24C1609.07 332.24 1578.63 349.945 1586.01 406.383C1586.01 406.383 1568.31 460.976 1600.21 527.004C1600.21 527.004 1595.6 582.888 1614.6 610.922C1614.6 610.922 1607.78 625.308 1603.16 629.919C1603.16 629.919 1632.49 633.423 1660.52 601.331C1660.52 601.331 1657.94 670.126 1699.99 688.016C1699.99 688.016 1699.62 646.518 1716.41 634.53C1716.41 634.53 1737.25 690.414 1764.36 708.304C1764.36 708.304 1743.15 707.198 1730.61 710.517C1730.61 710.517 1768.42 729.33 1829.28 767.139C1868.57 791.485 1929.43 842.758 1979.41 846.816C2029.21 842.758 2090.08 791.669 2129.54 767.139C2190.22 729.33 2228.22 710.517 2228.22 710.517C2215.68 707.013 2194.47 708.304 2194.47 708.304C2221.39 690.414 2242.42 634.53 2242.42 634.53C2259.2 646.703 2258.83 688.016 2258.83 688.016C2301.07 670.126 2298.3 601.331 2298.3 601.331C2326.34 633.239 2355.66 629.919 2355.66 629.919C2351.05 625.308 2344.23 610.922 2344.23 610.922C2363.22 582.888 2358.61 527.004 2358.61 527.004C2390.52 460.976 2372.82 406.383 2372.82 406.383C2380.19 349.945 2349.76 332.24 2349.76 332.24C2365.25 335.744 2378.72 349.945 2378.72 349.945ZM2239.65 396.792C2274.7 412.285 2286.68 455.258 2286.68 455.258C2243.34 428.331 2190.59 444.93 2190.59 444.93C2235.41 455.627 2256.25 482.186 2256.25 482.186C2225.08 464.296 2184.51 474.993 2184.51 474.993C2223.98 509.298 2206.45 570.346 2206.45 570.346C2197.42 496.572 2110.36 485.321 2110.36 485.321C2137.66 497.863 2153.52 543.234 2153.52 543.234C2153.52 543.234 2105.57 496.572 2068.68 508.007C2068.68 508.007 2037.88 517.966 2034.01 550.058C2034.01 550.058 2079.19 592.479 2089.52 620.328C2095.79 637.296 2102.99 657.769 2121.61 683.59C2140.24 709.411 2108.7 743.531 2069.6 757.364C2039.91 767.693 2003.39 759.208 1987.53 755.889C1987.71 750.724 1989.74 718.633 1998.41 709.964C2007.82 700.558 2022.57 701.665 2026.81 709.964C2026.81 709.964 2049.68 707.198 2053.56 682.852C2057.61 658.691 2052.27 623.279 1979.23 623.279C1906.19 623.279 1901.03 658.691 1904.9 682.852C1908.77 707.013 1931.64 709.964 1931.64 709.964C1935.89 701.665 1950.83 700.558 1960.05 709.964C1968.72 718.633 1970.75 750.724 1970.93 755.889C1955.07 759.024 1918.55 767.693 1888.86 757.364C1849.76 743.716 1818.22 709.411 1836.84 683.59C1855.47 657.769 1862.67 637.296 1868.94 620.328C1879.27 592.479 1924.45 550.058 1924.45 550.058C1920.39 517.966 1889.78 508.007 1889.78 508.007C1852.71 496.388 1804.94 543.234 1804.94 543.234C1804.94 543.234 1820.61 497.863 1848.1 485.321C1848.1 485.321 1761.04 496.756 1752 570.346C1752 570.346 1734.48 509.114 1773.95 474.993C1773.95 474.993 1733.38 464.296 1702.21 482.186C1702.21 482.186 1723.05 455.627 1767.87 444.93C1767.87 444.93 1715.12 428.146 1671.77 455.258C1671.77 455.258 1683.95 412.285 1718.81 396.792C1718.81 396.792 1665.69 403.985 1634.52 435.155C1634.52 435.155 1660.52 351.421 1750.9 336.666C1750.9 336.666 1758.09 342.568 1770.26 351.237C1772.11 362.303 1779.85 398.083 1804.38 419.109C1833.71 444.192 1863.03 430.728 1893.65 444.561C1916.34 454.889 1924.64 477.391 1924.64 477.391C1924.64 477.391 1925.93 436.63 1897.71 416.527C1897.71 416.527 1843.85 377.611 1825.23 339.986C1798.11 285.209 1756.98 276.724 1743.34 272.482C1710.32 261.97 1705.16 213.832 1719.17 176.576C1741.49 117.556 1804.75 108.888 1804.75 108.888C1804.75 108.888 1788.89 100.219 1769.16 100.219C1769.16 100.219 1725.63 -4.35564 1658.5 -58.3953C1676.39 -52.8622 1704.42 -39.0296 1740.75 -5.27784C1740.75 -5.27784 1821.72 20.3587 1881.48 73.1074C1881.48 73.1074 1930.17 49.1307 1979.41 49.1307C2028.66 49.1307 2077.35 73.1074 2077.35 73.1074C2136.92 20.3587 2218.07 -5.27784 2218.07 -5.27784C2254.41 -39.0296 2282.44 -52.8622 2300.33 -58.3953C2233.2 -4.35564 2189.67 100.219 2189.67 100.219C2169.94 100.219 2154.07 108.888 2154.07 108.888C2154.07 108.888 2217.34 117.556 2239.65 176.576C2253.67 213.647 2248.51 261.785 2215.49 272.482C2201.84 276.724 2160.9 285.209 2133.6 339.986C2114.97 377.611 2061.12 416.527 2061.12 416.527C2032.9 436.815 2034.19 477.391 2034.19 477.391C2034.19 477.391 2042.49 454.889 2065.18 444.561C2095.61 430.728 2124.93 444.192 2154.44 419.109C2178.97 398.083 2186.72 362.303 2188.56 351.237C2200.74 342.568 2207.93 336.666 2207.93 336.666C2298.3 351.421 2324.31 435.155 2324.31 435.155C2292.77 403.985 2239.65 396.792 2239.65 396.792ZM1792.95 366.545C1817.48 389.046 1873.18 414.314 1873.18 414.314C1873.18 414.314 1844.22 435.524 1817.11 418.556C1794.42 404.17 1792.4 378.164 1792.95 366.545ZM2141.16 418.371C2114.05 435.339 2085.1 414.129 2085.1 414.129C2085.1 414.129 2140.8 388.861 2165.33 366.36C2165.88 378.164 2163.85 404.17 2141.16 418.371Z" fill="#FF4AF7"/>
<path d="M2059.27 140.795C2059.27 140.795 2019.25 155.365 1989.74 258.28C1977.75 300.332 1955.07 312.689 1955.07 312.689C1955.07 312.689 1932.38 300.332 1920.39 258.28C1890.88 155.55 1850.86 140.795 1850.86 140.795C1873.55 177.866 1876.31 238.73 1885.54 274.142C1892.18 299.225 1915.05 327.813 1930.91 358.982C1948.8 394.394 1955.07 441.609 1955.07 441.609C1955.07 441.609 1961.15 394.394 1979.23 358.982C1995.09 327.813 2017.96 299.041 2024.6 274.142C2033.82 238.915 2036.59 177.866 2059.27 140.795Z" fill="#00CCFF"/>
<path d="M2075.32 140.795C2075.32 140.795 2035.3 155.365 2005.79 258.28C1993.8 300.332 1971.12 312.689 1971.12 312.689C1971.12 312.689 1948.43 300.332 1936.44 258.28C1906.93 155.55 1866.91 140.795 1866.91 140.795C1889.59 177.866 1892.36 238.73 1901.58 274.142C1908.22 299.225 1931.09 327.813 1946.95 358.982C1964.84 394.394 1971.12 441.609 1971.12 441.609C1971.12 441.609 1977.2 394.394 1995.28 358.982C2011.14 327.813 2034.01 299.041 2040.65 274.142C2049.87 238.915 2052.82 177.866 2075.32 140.795Z" fill="#FF4AF7"/>
<path d="M2067.2 140.795C2067.2 140.795 2027.18 155.365 1997.67 258.28C1985.68 300.332 1963 312.689 1963 312.689C1963 312.689 1940.31 300.332 1928.32 258.28C1898.81 155.55 1858.79 140.795 1858.79 140.795C1881.48 177.866 1884.24 238.73 1893.47 274.142C1900.11 299.225 1922.98 327.813 1938.84 358.982C1956.73 394.394 1963 441.609 1963 441.609C1963 441.609 1969.08 394.394 1987.16 358.982C2003.02 327.813 2025.89 299.041 2032.53 274.142C2041.75 238.915 2044.7 177.866 2067.2 140.795Z" fill="black"/>
<path d="M2362.49 349.945C2361.01 284.655 2305.86 280.044 2305.86 280.044C2327.81 261.416 2356.77 260.31 2356.77 260.31C2347.18 222.685 2309.18 202.95 2309.18 202.95C2311.77 168.83 2294.98 147.804 2294.98 147.804C2322.83 142.271 2334.64 123.274 2334.64 123.274C2327.07 111.839 2303.65 105.753 2303.65 105.753C2340.72 90.8132 2328.37 50.0529 2328.37 50.0529C2326.71 50.4218 2324.86 50.9751 2323.2 51.8972C2333.71 12.2436 2335.19 -73.5191 2310.48 -101C2269.9 -91.7782 2223.05 -56.9198 2189.67 -23.537C2189.67 -23.537 2112.94 5.23501 2060.93 52.4506C2060.93 52.4506 2006.34 38.9868 1963 38.9868C1919.66 38.9868 1865.06 52.4506 1865.06 52.4506C1812.87 5.23501 1736.33 -23.537 1736.33 -23.537C1702.94 -56.9198 1656.1 -91.7782 1615.52 -101C1590.99 -73.5191 1592.28 12.2436 1602.8 51.8972C1601.14 51.1595 1599.29 50.4218 1597.63 50.0529C1597.63 50.0529 1585.27 90.6288 1622.35 105.753C1622.35 105.753 1598.92 111.839 1591.36 123.274C1591.36 123.274 1603.16 142.271 1631.01 147.804C1631.01 147.804 1614.05 168.645 1616.81 202.95C1616.81 202.95 1578.82 222.685 1569.23 260.31C1569.23 260.31 1598.18 261.416 1620.13 280.044C1620.13 280.044 1564.99 284.655 1563.51 349.945C1563.51 349.945 1576.97 335.744 1592.84 332.24C1592.84 332.24 1562.4 349.945 1569.78 406.383C1569.78 406.383 1552.08 460.976 1583.98 527.004C1583.98 527.004 1579.37 582.888 1598.37 610.922C1598.37 610.922 1591.54 625.308 1586.93 629.919C1586.93 629.919 1616.26 633.423 1644.29 601.331C1644.29 601.331 1641.71 670.126 1683.76 688.016C1683.76 688.016 1683.39 646.518 1700.18 634.53C1700.18 634.53 1721.02 690.414 1748.13 708.304C1748.13 708.304 1726.92 707.198 1714.38 710.517C1714.38 710.517 1752.19 729.33 1813.05 767.139C1852.34 791.485 1913.2 842.758 1963.18 846.816C2012.98 842.758 2073.84 791.669 2113.31 767.139C2173.99 729.33 2211.99 710.517 2211.99 710.517C2199.45 707.013 2178.24 708.304 2178.24 708.304C2205.16 690.414 2226.19 634.53 2226.19 634.53C2242.97 646.703 2242.6 688.016 2242.6 688.016C2284.84 670.126 2282.07 601.331 2282.07 601.331C2310.11 633.239 2339.43 629.919 2339.43 629.919C2334.82 625.308 2328 610.922 2328 610.922C2346.99 582.888 2342.38 527.004 2342.38 527.004C2374.29 460.976 2356.58 406.383 2356.58 406.383C2363.96 349.945 2333.53 332.24 2333.53 332.24C2349.02 335.744 2362.49 349.945 2362.49 349.945ZM2223.42 396.792C2258.46 412.285 2270.45 455.258 2270.45 455.258C2227.11 428.331 2174.36 444.93 2174.36 444.93C2219.18 455.627 2240.02 482.186 2240.02 482.186C2208.85 464.296 2168.28 474.993 2168.28 474.993C2207.74 509.114 2190.22 570.346 2190.22 570.346C2181.19 496.572 2094.13 485.321 2094.13 485.321C2121.43 497.863 2137.29 543.234 2137.29 543.234C2137.29 543.234 2089.34 496.572 2052.45 508.007C2052.45 508.007 2021.65 517.966 2017.78 550.058C2017.78 550.058 2062.96 592.479 2073.29 620.328C2079.56 637.296 2086.75 657.769 2105.38 683.59C2124.01 709.411 2092.47 743.531 2053.37 757.364C2023.68 767.693 1987.16 759.208 1971.3 755.889C1971.48 750.724 1973.51 718.633 1982.18 709.964C1991.59 700.558 2006.34 701.665 2010.58 709.964C2010.58 709.964 2033.45 707.198 2037.33 682.852C2041.38 658.691 2036.04 623.279 1963 623.279C1889.96 623.279 1884.8 658.691 1888.67 682.852C1892.73 707.013 1915.41 709.964 1915.41 709.964C1919.66 701.665 1934.6 700.558 1943.82 709.964C1952.49 718.633 1954.51 750.724 1954.7 755.889C1938.84 759.024 1902.32 767.693 1872.63 757.364C1833.52 743.716 1801.99 709.411 1820.61 683.59C1839.24 657.769 1846.44 637.296 1852.71 620.328C1863.03 592.479 1908.22 550.058 1908.22 550.058C1904.16 517.966 1873.55 508.007 1873.55 508.007C1836.48 496.388 1788.71 543.234 1788.71 543.234C1788.71 543.234 1804.38 497.863 1831.86 485.321C1831.86 485.321 1744.81 496.756 1735.77 570.346C1735.77 570.346 1718.25 509.114 1757.72 474.993C1757.72 474.993 1717.15 464.296 1685.98 482.186C1685.98 482.186 1706.82 455.627 1751.64 444.93C1751.64 444.93 1698.89 428.146 1655.54 455.258C1655.54 455.258 1667.72 412.285 1702.58 396.792C1702.58 396.792 1649.46 403.985 1618.29 435.155C1618.29 435.155 1644.29 351.421 1734.67 336.666C1734.67 336.666 1741.86 342.568 1754.03 351.237C1755.88 362.303 1763.62 398.083 1788.15 419.109C1817.48 444.192 1846.8 430.728 1877.42 444.561C1900.11 454.889 1908.41 477.391 1908.41 477.391C1908.41 477.391 1909.7 436.63 1881.48 416.527C1881.48 416.527 1827.62 377.611 1808.99 339.986C1781.88 285.209 1740.75 276.724 1727.11 272.482C1694.09 261.97 1688.93 213.832 1702.94 176.576C1725.26 117.556 1788.52 108.888 1788.52 108.888C1788.52 108.888 1772.66 100.219 1752.93 100.219C1752.93 100.219 1709.4 -4.35564 1642.26 -58.3953C1660.16 -52.8622 1688.19 -39.0296 1724.52 -5.27784C1724.52 -5.27784 1805.49 20.3587 1865.25 73.1074C1865.25 73.1074 1913.94 49.1307 1963.18 49.1307C2012.43 49.1307 2061.12 73.1074 2061.12 73.1074C2120.69 20.3587 2201.84 -5.27784 2201.84 -5.27784C2238.18 -39.0296 2266.21 -52.8622 2284.1 -58.3953C2216.97 -4.35564 2173.44 100.219 2173.44 100.219C2153.71 100.219 2137.84 108.888 2137.84 108.888C2137.84 108.888 2201.11 117.556 2223.42 176.576C2237.44 213.647 2232.27 261.785 2199.26 272.482C2185.61 276.724 2144.67 285.209 2117.37 339.986C2098.74 377.611 2044.89 416.527 2044.89 416.527C2016.67 436.815 2017.96 477.391 2017.96 477.391C2017.96 477.391 2026.26 454.889 2048.95 444.561C2079.38 430.728 2108.7 444.192 2138.21 419.109C2162.74 398.083 2170.49 362.303 2172.33 351.237C2184.51 342.568 2191.7 336.666 2191.7 336.666C2282.07 351.421 2308.08 435.155 2308.08 435.155C2276.54 403.985 2223.42 396.792 2223.42 396.792ZM1776.72 366.545C1801.25 389.046 1856.95 414.314 1856.95 414.314C1856.95 414.314 1827.99 435.524 1800.88 418.556C1778.19 404.17 1776.35 378.164 1776.72 366.545ZM2124.93 418.371C2097.82 435.339 2068.86 414.129 2068.86 414.129C2068.86 414.129 2124.56 388.861 2149.09 366.36C2149.65 378.164 2147.8 404.17 2124.93 418.371Z" fill="black"/>
<path d="M1852.15 414.129C1852.15 414.129 1823.2 435.339 1796.09 418.371C1773.4 404.169 1771.37 378.163 1771.92 366.544C1796.45 389.045 1852.15 414.129 1852.15 414.129Z" fill="#00CCFF"/>
<path d="M1861.93 414.129C1861.93 414.129 1832.97 435.339 1805.86 418.371C1783.17 404.169 1781.14 378.163 1781.7 366.544C1806.04 389.045 1861.93 414.129 1861.93 414.129Z" fill="#FF4AF7"/>
<path d="M1856.95 414.129C1856.95 414.129 1827.99 435.339 1800.88 418.371C1778.2 404.169 1776.17 378.163 1776.72 366.544C1801.25 389.045 1856.95 414.129 1856.95 414.129Z" fill="white"/>
</g>
<g opacity="0.15">
<path d="M-365.525 567.949L-446.677 436.999L-375.853 308.078L-365.525 150.755L-410.527 -79.4211L-340.995 -45.8538L-255.786 5.60377L-166.15 60.1967C-166.15 60.1967 -113.955 41.1999 -67.4768 43.0442C-12.8839 45.2575 28.2453 62.5944 28.2453 62.5944L98.3309 14.0878L192.393 -30.3612L262.663 -81.0811L227.251 88.231L242.928 265.105L301.579 433.679L196.635 582.888L125.258 698.16L9.43283 793.145L-65.8169 808.084L-187.913 769.906L-272.938 678.057L-365.525 567.949Z" fill="white"/>
<path d="M317.257 349.945C315.781 284.655 260.635 280.044 260.635 280.044C282.583 261.416 311.539 260.31 311.539 260.31C301.949 222.685 263.955 202.95 263.955 202.95C266.537 168.83 249.753 147.804 249.753 147.804C277.603 142.271 289.407 123.274 289.407 123.274C281.845 111.839 258.422 105.753 258.422 105.753C295.494 90.8132 283.136 50.0529 283.136 50.0529C281.476 50.4218 279.632 50.9751 277.972 51.8972C288.485 12.2436 289.96 -73.5191 265.246 -101C224.67 -91.7782 177.823 -56.9198 144.441 -23.537C144.441 -23.537 67.7153 5.23501 15.7044 52.4506C15.7044 52.4506 -38.8886 38.9868 -82.231 38.9868C-125.573 38.9868 -180.166 52.4506 -180.166 52.4506C-232.362 5.23501 -308.903 -23.537 -308.903 -23.537C-342.286 -56.9198 -389.132 -91.7782 -429.708 -101C-454.238 -73.5191 -452.947 12.2436 -442.434 51.8972C-444.094 51.1595 -445.938 50.4218 -447.598 50.0529C-447.598 50.0529 -459.956 90.6288 -422.884 105.753C-422.884 105.753 -446.307 111.839 -453.869 123.274C-453.869 123.274 -442.065 142.271 -414.215 147.804C-414.215 147.804 -431.184 168.645 -428.417 202.95C-428.417 202.95 -466.411 222.685 -476.002 260.31C-476.002 260.31 -447.045 261.416 -425.097 280.044C-425.097 280.044 -480.244 284.655 -481.719 349.945C-481.719 349.945 -468.255 335.744 -452.394 332.24C-452.394 332.24 -482.826 349.945 -475.448 406.383C-475.448 406.383 -493.154 460.976 -461.247 527.004C-461.247 527.004 -465.858 582.888 -446.861 610.922C-446.861 610.922 -453.685 625.308 -458.296 629.919C-458.296 629.919 -428.97 633.423 -400.936 601.331C-400.936 601.331 -403.518 670.126 -361.467 688.016C-361.467 688.016 -361.836 646.518 -345.052 634.53C-345.052 634.53 -324.211 690.414 -297.099 708.304C-297.099 708.304 -318.309 707.198 -330.851 710.517C-330.851 710.517 -293.041 729.33 -232.177 767.139C-192.893 791.485 -132.029 842.758 -82.0466 846.816C-32.2489 842.758 28.6149 791.669 68.0842 767.139C128.764 729.33 166.757 710.517 166.757 710.517C154.216 707.013 133.006 708.304 133.006 708.304C159.933 690.414 180.959 634.53 180.959 634.53C197.743 646.703 197.374 688.016 197.374 688.016C239.609 670.126 236.843 601.331 236.843 601.331C264.877 633.239 294.202 629.919 294.202 629.919C289.592 625.308 282.767 610.922 282.767 610.922C301.764 582.888 297.154 527.004 297.154 527.004C329.061 460.976 311.355 406.383 311.355 406.383C318.732 349.945 288.3 332.24 288.3 332.24C303.978 335.744 317.257 349.945 317.257 349.945ZM178.192 396.792C213.235 412.285 225.224 455.258 225.224 455.258C181.881 428.331 129.132 444.93 129.132 444.93C173.95 455.627 194.792 482.186 194.792 482.186C163.622 464.296 123.046 474.993 123.046 474.993C162.515 509.114 144.994 570.346 144.994 570.346C135.957 496.572 48.9028 485.321 48.9028 485.321C76.1993 497.863 92.0609 543.234 92.0609 543.234C92.0609 543.234 44.1075 496.572 7.22037 508.007C7.22037 508.007 -23.5804 517.966 -27.4536 550.058C-27.4536 550.058 17.7332 592.479 28.0616 620.328C34.3324 637.296 41.5254 657.769 60.1534 683.59C78.7814 709.411 47.243 743.531 8.14255 757.364C-21.5516 767.693 -58.0699 759.208 -73.9314 755.889C-73.7469 750.724 -71.7182 718.633 -63.0497 709.964C-53.6435 700.558 -38.8886 701.665 -34.6466 709.964C-34.6466 709.964 -11.7765 707.198 -7.90338 682.852C-3.84579 658.691 -9.19443 623.279 -82.231 623.279C-155.268 623.279 -160.432 658.691 -156.374 682.852C-152.317 707.013 -129.631 709.964 -129.631 709.964C-125.389 701.665 -110.45 700.558 -101.228 709.964C-92.5594 718.633 -90.5306 750.724 -90.3462 755.889C-106.208 759.024 -142.726 767.693 -172.42 757.364C-211.521 743.716 -243.059 709.411 -224.431 683.59C-205.803 657.769 -198.61 637.296 -192.339 620.328C-182.011 592.479 -136.824 550.058 -136.824 550.058C-140.882 517.966 -171.498 508.007 -171.498 508.007C-208.57 496.388 -256.338 543.234 -256.338 543.234C-256.338 543.234 -240.661 497.863 -213.18 485.321C-213.18 485.321 -300.234 496.756 -309.271 570.346C-309.271 570.346 -326.793 509.114 -287.324 474.993C-287.324 474.993 -327.9 464.296 -359.069 482.186C-359.069 482.186 -338.228 455.627 -293.41 444.93C-293.41 444.93 -346.159 428.146 -389.501 455.258C-389.501 455.258 -377.328 412.285 -342.47 396.792C-342.47 396.792 -395.587 403.985 -426.757 435.155C-426.757 435.155 -400.752 351.421 -310.378 336.666C-310.378 336.666 -303.185 342.568 -291.012 351.237C-289.168 362.303 -281.422 398.083 -256.892 419.109C-227.566 444.192 -198.241 430.728 -167.625 444.561C-144.939 454.889 -136.64 477.391 -136.64 477.391C-136.64 477.391 -135.349 436.63 -163.567 416.527C-163.567 416.527 -217.422 377.611 -236.051 339.986C-263.163 285.209 -304.292 276.724 -317.94 272.482C-350.954 261.97 -356.118 213.832 -342.101 176.576C-319.784 117.556 -256.523 108.888 -256.523 108.888C-256.523 108.888 -272.384 100.219 -292.119 100.219C-292.119 100.219 -335.646 -4.35564 -402.78 -58.3953C-384.89 -52.8622 -356.856 -39.0296 -320.522 -5.27784C-320.522 -5.27784 -239.555 20.3587 -179.798 73.1074C-179.798 73.1074 -131.107 49.1307 -81.8622 49.1307C-32.6178 49.1307 16.0733 73.1074 16.0733 73.1074C75.6461 20.3587 156.798 -5.27784 156.798 -5.27784C193.132 -39.0296 221.166 -52.8622 239.056 -58.3953C171.922 -4.35564 128.395 100.219 128.395 100.219C108.66 100.219 92.7986 108.888 92.7986 108.888C92.7986 108.888 156.06 117.556 178.377 176.576C192.394 213.647 187.23 261.785 154.216 272.482C140.568 276.724 99.6227 285.209 72.3262 339.986C53.6982 377.611 -0.157043 416.527 -0.157043 416.527C-28.3757 436.815 -27.0847 477.391 -27.0847 477.391C-27.0847 477.391 -18.7851 454.889 3.90051 444.561C34.3324 430.728 63.6577 444.192 93.1674 419.109C117.697 398.083 125.444 362.303 127.288 351.237C139.461 342.568 146.654 336.666 146.654 336.666C237.027 351.421 263.033 435.155 263.033 435.155C231.494 403.985 178.192 396.792 178.192 396.792ZM-268.327 366.545C-243.797 389.046 -188.097 414.314 -188.097 414.314C-188.097 414.314 -217.054 435.524 -244.166 418.556C-266.851 404.17 -268.88 378.164 -268.327 366.545ZM79.8881 418.371C52.776 435.339 23.8196 414.129 23.8196 414.129C23.8196 414.129 79.5192 388.861 104.049 366.36C104.602 378.164 102.574 404.17 79.8881 418.371Z" fill="#00CCFF"/>
<path d="M349.717 349.945C348.242 284.655 293.096 280.044 293.096 280.044C315.043 261.416 344 260.31 344 260.31C334.409 222.685 296.415 202.95 296.415 202.95C298.997 168.83 282.214 147.804 282.214 147.804C310.064 142.271 321.867 123.274 321.867 123.274C314.306 111.839 290.882 105.753 290.882 105.753C327.954 90.8132 315.597 50.0529 315.597 50.0529C313.937 50.4218 312.092 50.9751 310.432 51.8972C320.945 12.2436 322.421 -73.5191 297.706 -101C257.131 -91.7782 210.284 -56.9198 176.901 -23.537C176.901 -23.537 100.176 5.23501 48.1647 52.4506C48.1647 52.4506 -6.42831 38.9868 -49.7708 38.9868C-93.1132 38.9868 -147.706 52.4506 -147.706 52.4506C-199.901 5.23501 -276.442 -23.537 -276.442 -23.537C-309.825 -56.9198 -356.672 -91.7782 -397.248 -101C-421.778 -73.5191 -420.487 12.2436 -409.974 51.8972C-411.634 51.1595 -413.478 50.4218 -415.138 50.0529C-415.138 50.0529 -427.495 90.6288 -390.424 105.753C-390.424 105.753 -413.847 111.839 -421.409 123.274C-421.409 123.274 -409.605 142.271 -381.755 147.804C-381.755 147.804 -398.723 168.645 -395.957 202.95C-395.957 202.95 -433.951 222.685 -443.541 260.31C-443.541 260.31 -414.585 261.416 -392.637 280.044C-392.637 280.044 -447.783 284.655 -449.259 349.945C-449.259 349.945 -435.795 335.744 -419.933 332.24C-419.933 332.24 -450.365 349.945 -442.988 406.383C-442.988 406.383 -460.694 460.976 -428.786 527.004C-428.786 527.004 -433.397 582.888 -414.4 610.922C-414.4 610.922 -421.225 625.308 -425.835 629.919C-425.835 629.919 -396.51 633.423 -368.476 601.331C-368.476 601.331 -371.058 670.126 -329.007 688.016C-329.007 688.016 -329.376 646.518 -312.592 634.53C-312.592 634.53 -291.751 690.414 -264.639 708.304C-264.639 708.304 -285.849 707.198 -298.39 710.517C-298.39 710.517 -260.581 729.33 -199.717 767.139C-160.432 791.485 -99.5684 842.758 -49.5863 846.816C0.211395 842.758 61.0752 791.669 100.544 767.139C161.224 729.33 199.218 710.517 199.218 710.517C186.676 707.013 165.466 708.304 165.466 708.304C192.394 690.414 213.419 634.53 213.419 634.53C230.203 646.703 229.834 688.016 229.834 688.016C272.07 670.126 269.303 601.331 269.303 601.331C297.338 633.239 326.663 629.919 326.663 629.919C322.052 625.308 315.228 610.922 315.228 610.922C334.225 582.888 329.614 527.004 329.614 527.004C361.521 460.976 343.815 406.383 343.815 406.383C351.193 349.945 320.761 332.24 320.761 332.24C336.254 335.744 349.717 349.945 349.717 349.945ZM210.653 396.792C245.695 412.285 257.684 455.258 257.684 455.258C214.341 428.331 161.593 444.93 161.593 444.93C206.411 455.627 227.252 482.186 227.252 482.186C196.082 464.296 155.506 474.993 155.506 474.993C194.976 509.298 177.454 570.346 177.454 570.346C168.417 496.572 81.3632 485.321 81.3632 485.321C108.66 497.863 124.521 543.234 124.521 543.234C124.521 543.234 76.5678 496.572 39.6806 508.007C39.6806 508.007 8.87988 517.966 5.00674 550.058C5.00674 550.058 50.1935 592.479 60.522 620.328C66.7928 637.296 73.9857 657.769 92.6137 683.59C111.242 709.411 79.7032 743.531 40.6028 757.364C10.9086 767.693 -25.6096 759.208 -41.4711 755.889C-41.2867 750.724 -39.2578 718.633 -30.5894 709.964C-21.1831 700.558 -6.42828 701.665 -2.18625 709.964C-2.18625 709.964 20.6838 707.198 24.557 682.852C28.6146 658.691 23.2659 623.279 -49.7708 623.279C-122.807 623.279 -127.972 658.691 -124.098 682.852C-120.225 707.013 -97.3552 709.964 -97.3552 709.964C-93.1132 701.665 -78.1739 700.558 -68.9521 709.964C-60.2836 718.633 -58.2548 750.724 -58.0703 755.889C-73.9319 759.024 -110.45 767.693 -140.144 757.364C-179.245 743.716 -210.783 709.411 -192.155 683.59C-173.527 657.769 -166.334 637.296 -160.063 620.328C-149.735 592.479 -104.548 550.058 -104.548 550.058C-108.606 517.966 -139.222 508.007 -139.222 508.007C-176.294 496.388 -224.063 543.234 -224.063 543.234C-224.063 543.234 -208.386 497.863 -180.905 485.321C-180.905 485.321 -267.958 496.756 -276.996 570.346C-276.996 570.346 -294.517 509.114 -255.048 474.993C-255.048 474.993 -295.624 464.296 -326.793 482.186C-326.793 482.186 -305.952 455.627 -261.134 444.93C-261.134 444.93 -313.883 428.146 -357.225 455.258C-357.225 455.258 -345.053 412.285 -310.194 396.792C-310.194 396.792 -363.312 403.985 -394.481 435.155C-394.481 435.155 -368.476 351.421 -278.102 336.666C-278.102 336.666 -270.909 342.568 -258.737 351.237C-256.892 362.303 -249.146 398.083 -224.616 419.109C-195.291 444.192 -165.965 430.728 -135.349 444.561C-112.663 454.889 -104.364 477.391 -104.364 477.391C-104.364 477.391 -103.073 436.63 -131.291 416.527C-131.291 416.527 -185.147 377.611 -203.775 339.986C-230.887 285.209 -272.016 276.724 -285.664 272.482C-318.678 261.97 -323.842 213.832 -309.825 176.576C-287.509 117.556 -224.247 108.888 -224.247 108.888C-224.247 108.888 -240.109 100.219 -259.843 100.219C-259.843 100.219 -303.37 -4.35564 -370.505 -58.3953C-352.614 -52.8622 -324.58 -39.0296 -288.246 -5.27784C-288.246 -5.27784 -207.279 20.3587 -147.522 73.1074C-147.522 73.1074 -98.8307 49.1307 -49.5863 49.1307C-0.341919 49.1307 48.3491 73.1074 48.3491 73.1074C107.922 20.3587 189.074 -5.27784 189.074 -5.27784C225.408 -39.0296 253.442 -52.8622 271.332 -58.3953C204.197 -4.35564 160.671 100.219 160.671 100.219C140.936 100.219 125.075 108.888 125.075 108.888C125.075 108.888 188.336 117.556 210.653 176.576C224.67 213.647 219.506 261.785 186.492 272.482C172.843 276.724 131.899 285.209 104.602 339.986C85.9741 377.611 32.1188 416.527 32.1188 416.527C3.90012 436.815 5.19119 477.391 5.19119 477.391C5.19119 477.391 13.4908 454.889 36.1764 444.561C66.6083 430.728 95.9335 444.192 125.443 419.109C149.973 398.083 157.72 362.303 159.564 351.237C171.737 342.568 178.93 336.666 178.93 336.666C269.303 351.421 295.309 435.155 295.309 435.155C263.77 403.985 210.653 396.792 210.653 396.792ZM-236.051 366.545C-211.521 389.046 -155.821 414.314 -155.821 414.314C-155.821 414.314 -184.778 435.524 -211.89 418.556C-234.575 404.17 -236.604 378.164 -236.051 366.545ZM112.164 418.371C85.0519 435.339 56.0955 414.129 56.0955 414.129C56.0955 414.129 111.795 388.861 136.325 366.36C136.878 378.164 134.85 404.17 112.164 418.371Z" fill="#FF4AF7"/>
<path d="M30.2749 140.795C30.2749 140.795 -9.7477 155.365 -39.2574 258.28C-51.2457 300.332 -73.9313 312.689 -73.9313 312.689C-73.9313 312.689 -96.6169 300.332 -108.605 258.28C-138.115 155.55 -178.137 140.795 -178.137 140.795C-155.452 177.866 -152.685 238.73 -143.464 274.142C-136.824 299.225 -113.954 327.813 -98.0924 358.982C-80.2021 394.394 -73.9313 441.609 -73.9313 441.609C-73.9313 441.609 -67.845 394.394 -49.7703 358.982C-33.9088 327.813 -11.0388 299.041 -4.39906 274.142C4.82272 238.915 7.58929 177.866 30.2749 140.795Z" fill="#00CCFF"/>
<path d="M46.3214 140.795C46.3214 140.795 6.29889 155.365 -23.2108 258.28C-35.1991 300.332 -57.8847 312.689 -57.8847 312.689C-57.8847 312.689 -80.5703 300.332 -92.5586 258.28C-122.068 155.55 -162.091 140.795 -162.091 140.795C-139.405 177.866 -136.639 238.73 -127.417 274.142C-120.777 299.225 -97.9073 327.813 -82.0458 358.982C-64.1555 394.394 -57.8847 441.609 -57.8847 441.609C-57.8847 441.609 -51.7983 394.394 -33.7236 358.982C-17.8622 327.813 5.00783 299.041 11.6475 274.142C20.8693 238.915 23.8202 177.866 46.3214 140.795Z" fill="#FF4AF7"/>
<path d="M38.2043 140.795C38.2043 140.795 -1.81822 155.365 -31.3279 258.28C-43.3163 300.332 -66.0018 312.689 -66.0018 312.689C-66.0018 312.689 -88.6874 300.332 -100.676 258.28C-130.185 155.55 -170.208 140.795 -170.208 140.795C-147.522 177.866 -144.756 238.73 -135.534 274.142C-128.894 299.225 -106.024 327.813 -90.1629 358.982C-72.2727 394.394 -66.0018 441.609 -66.0018 441.609C-66.0018 441.609 -59.9154 394.394 -41.8407 358.982C-25.9793 327.813 -3.10922 299.041 3.53046 274.142C12.7522 238.915 15.7032 177.866 38.2043 140.795Z" fill="black"/>
<path d="M333.487 349.945C332.011 284.655 276.865 280.044 276.865 280.044C298.813 261.416 327.769 260.31 327.769 260.31C318.179 222.685 280.185 202.95 280.185 202.95C282.767 168.83 265.983 147.804 265.983 147.804C293.833 142.271 305.637 123.274 305.637 123.274C298.075 111.839 274.652 105.753 274.652 105.753C311.723 90.8132 299.366 50.0529 299.366 50.0529C297.706 50.4218 295.862 50.9751 294.202 51.8972C304.715 12.2436 306.19 -73.5191 281.476 -101C240.9 -91.7782 194.053 -56.9198 160.671 -23.537C160.671 -23.537 83.9453 5.23501 31.9344 52.4506C31.9344 52.4506 -22.6585 38.9868 -66.0009 38.9868C-109.343 38.9868 -163.936 52.4506 -163.936 52.4506C-216.132 5.23501 -292.672 -23.537 -292.672 -23.537C-326.055 -56.9198 -372.902 -91.7782 -413.478 -101C-438.008 -73.5191 -436.717 12.2436 -426.204 51.8972C-427.864 51.1595 -429.708 50.4218 -431.368 50.0529C-431.368 50.0529 -443.725 90.6288 -406.654 105.753C-406.654 105.753 -430.077 111.839 -437.639 123.274C-437.639 123.274 -425.835 142.271 -397.985 147.804C-397.985 147.804 -414.953 168.645 -412.187 202.95C-412.187 202.95 -450.181 222.685 -459.771 260.31C-459.771 260.31 -430.815 261.416 -408.867 280.044C-408.867 280.044 -464.013 284.655 -465.489 349.945C-465.489 349.945 -452.025 335.744 -436.163 332.24C-436.163 332.24 -466.595 349.945 -459.218 406.383C-459.218 406.383 -476.924 460.976 -445.016 527.004C-445.016 527.004 -449.627 582.888 -430.63 610.922C-430.63 610.922 -437.455 625.308 -442.065 629.919C-442.065 629.919 -412.74 633.423 -384.706 601.331C-384.706 601.331 -387.288 670.126 -345.237 688.016C-345.237 688.016 -345.606 646.518 -328.822 634.53C-328.822 634.53 -307.981 690.414 -280.869 708.304C-280.869 708.304 -302.079 707.198 -314.62 710.517C-314.62 710.517 -276.811 729.33 -215.947 767.139C-176.662 791.485 -115.799 842.758 -65.8165 846.816C-16.0189 842.758 44.8449 791.669 84.3141 767.139C144.994 729.33 182.987 710.517 182.987 710.517C170.446 707.013 149.236 708.304 149.236 708.304C176.163 690.414 197.189 634.53 197.189 634.53C213.973 646.703 213.604 688.016 213.604 688.016C255.839 670.126 253.073 601.331 253.073 601.331C281.107 633.239 310.432 629.919 310.432 629.919C305.821 625.308 298.997 610.922 298.997 610.922C317.994 582.888 313.383 527.004 313.383 527.004C345.291 460.976 327.585 406.383 327.585 406.383C334.962 349.945 304.531 332.24 304.531 332.24C320.023 335.744 333.487 349.945 333.487 349.945ZM194.422 396.792C229.465 412.285 241.453 455.258 241.453 455.258C198.111 428.331 145.362 444.93 145.362 444.93C190.18 455.627 211.022 482.186 211.022 482.186C179.852 464.296 139.276 474.993 139.276 474.993C178.745 509.114 161.224 570.346 161.224 570.346C152.187 496.572 65.1329 485.321 65.1329 485.321C92.4294 497.863 108.291 543.234 108.291 543.234C108.291 543.234 60.3375 496.572 23.4504 508.007C23.4504 508.007 -7.35037 517.966 -11.2235 550.058C-11.2235 550.058 33.9632 592.479 44.2916 620.328C50.5624 637.296 57.7554 657.769 76.3835 683.59C95.0115 709.411 63.473 743.531 24.3726 757.364C-5.32159 767.693 -41.8399 759.208 -57.7014 755.889C-57.5169 750.724 -55.4881 718.633 -46.8196 709.964C-37.4134 700.558 -22.6586 701.665 -18.4166 709.964C-18.4166 709.964 4.45349 707.198 8.32663 682.852C12.3842 658.691 7.03558 623.279 -66.0009 623.279C-139.038 623.279 -144.202 658.691 -140.329 682.852C-136.271 707.013 -113.585 709.964 -113.585 709.964C-109.343 701.665 -94.4041 700.558 -85.1823 709.964C-76.5138 718.633 -74.485 750.724 -74.3006 755.889C-90.162 759.024 -126.68 767.693 -156.374 757.364C-195.475 743.716 -227.013 709.411 -208.385 683.59C-189.757 657.769 -182.564 637.296 -176.293 620.328C-165.965 592.479 -120.778 550.058 -120.778 550.058C-124.836 517.966 -155.452 508.007 -155.452 508.007C-192.524 496.388 -240.293 543.234 -240.293 543.234C-240.293 543.234 -224.616 497.863 -197.135 485.321C-197.135 485.321 -284.188 496.756 -293.226 570.346C-293.226 570.346 -310.747 509.114 -271.278 474.993C-271.278 474.993 -311.854 464.296 -343.023 482.186C-343.023 482.186 -322.182 455.627 -277.364 444.93C-277.364 444.93 -330.113 428.146 -373.455 455.258C-373.455 455.258 -361.283 412.285 -326.424 396.792C-326.424 396.792 -379.542 403.985 -410.711 435.155C-410.711 435.155 -384.706 351.421 -294.332 336.666C-294.332 336.666 -287.139 342.568 -274.967 351.237C-273.122 362.303 -265.376 398.083 -240.846 419.109C-211.521 444.192 -182.195 430.728 -151.579 444.561C-128.894 454.889 -120.594 477.391 -120.594 477.391C-120.594 477.391 -119.303 436.63 -147.522 416.527C-147.522 416.527 -201.377 377.611 -220.005 339.986C-247.117 285.209 -288.246 276.724 -301.894 272.482C-334.908 261.97 -340.072 213.832 -326.055 176.576C-303.739 117.556 -240.477 108.888 -240.477 108.888C-240.477 108.888 -256.339 100.219 -276.073 100.219C-276.073 100.219 -319.6 -4.35564 -386.735 -58.3953C-368.844 -52.8622 -340.81 -39.0296 -304.476 -5.27784C-304.476 -5.27784 -223.509 20.3587 -163.752 73.1074C-163.752 73.1074 -115.061 49.1307 -65.8165 49.1307C-16.5722 49.1307 32.1189 73.1074 32.1189 73.1074C91.6917 20.3587 172.843 -5.27784 172.843 -5.27784C209.177 -39.0296 237.211 -52.8622 255.102 -58.3953C187.967 -4.35564 144.44 100.219 144.44 100.219C124.706 100.219 108.844 108.888 108.844 108.888C108.844 108.888 172.106 117.556 194.422 176.576C208.439 213.647 203.275 261.785 170.261 272.482C156.613 276.724 115.668 285.209 88.3718 339.986C69.7438 377.611 15.8885 416.527 15.8885 416.527C-12.3302 436.815 -11.0391 477.391 -11.0391 477.391C-11.0391 477.391 -2.73947 454.889 19.9461 444.561C50.378 430.728 79.7033 444.192 109.213 419.109C133.743 398.083 141.489 362.303 143.334 351.237C155.506 342.568 162.699 336.666 162.699 336.666C253.073 351.421 279.078 435.155 279.078 435.155C247.54 403.985 194.422 396.792 194.422 396.792ZM-252.281 366.545C-227.751 389.046 -172.052 414.314 -172.052 414.314C-172.052 414.314 -201.008 435.524 -228.12 418.556C-250.806 404.17 -252.65 378.164 -252.281 366.545ZM95.9336 418.371C68.8215 435.339 39.8651 414.129 39.8651 414.129C39.8651 414.129 95.5648 388.861 120.095 366.36C120.648 378.164 118.804 404.17 95.9336 418.371Z" fill="black"/>
<path d="M91.1376 418.371C64.0256 435.34 35.0693 414.129 35.0693 414.129C35.0693 414.129 90.7687 388.862 115.298 366.36C115.852 378.164 113.823 404.17 91.1376 418.371Z" fill="#00CCFF"/>
<path d="M100.914 418.371C73.8022 435.34 44.8459 414.129 44.8459 414.129C44.8459 414.129 100.545 388.862 125.075 366.36C125.444 378.164 123.6 404.17 100.914 418.371Z" fill="#FF4AF7"/>
<path d="M95.9331 418.371C68.8211 435.34 39.8647 414.129 39.8647 414.129C39.8647 414.129 95.5643 388.862 120.094 366.36C120.647 378.164 118.803 404.17 95.9331 418.371Z" fill="white"/>
</g>
</g>
<g opacity="0.5">
<mask id="mask1" style="mask-type:alpha" maskUnits="userSpaceOnUse" x="-70" y="-15" width="802" height="1055">
<rect x="-70" y="-15" width="802" height="1055" fill="url(#paint0_linear)"/>
</mask>
<g mask="url(#mask1)">
<g style="mix-blend-mode:hard-light" opacity="0.5" filter="url(#filter1_f)">
<path d="M389 -43L79 1037" stroke="url(#paint1_linear)" stroke-width="949"/>
</g>
</g>
</g>
<g opacity="0.5">
<mask id="mask2" style="mask-type:alpha" maskUnits="userSpaceOnUse" x="1118" y="-15" width="802" height="1055">
<rect width="802" height="1055" transform="matrix(-1 0 0 1 1920 -15)" fill="url(#paint2_linear)"/>
</mask>
<g mask="url(#mask2)">
<g style="mix-blend-mode:hard-light" opacity="0.5" filter="url(#filter2_f)">
<path d="M1461 -43L1771 1037" stroke="url(#paint3_linear)" stroke-width="949"/>
</g>
</g>
</g>
<g filter="url(#filter3_f)">
<path d="M-112 -18H2032V353C2032 353 1385.16 183 960 183C534.845 183 -112 353 -112 353V-18Z" fill="url(#paint4_linear)"/>
</g>
</g>
<defs>
<filter id="filter0_f" x="-565" y="-566" width="3027" height="1438" filterUnits="userSpaceOnUse" color-interpolation-filters="sRGB">
<feFlood flood-opacity="0" result="BackgroundImageFix"/>
<feBlend mode="normal" in="SourceGraphic" in2="BackgroundImageFix" result="shape"/>
<feGaussianBlur stdDeviation="12.5" result="effect1_foregroundBlur"/>
</filter>
<filter id="filter1_f" x="-527.083" y="-323.913" width="1522.17" height="1641.83" filterUnits="userSpaceOnUse" color-interpolation-filters="sRGB">
<feFlood flood-opacity="0" result="BackgroundImageFix"/>
<feBlend mode="normal" in="SourceGraphic" in2="BackgroundImageFix" result="shape"/>
<feGaussianBlur stdDeviation="75" result="effect1_foregroundBlur"/>
</filter>
<filter id="filter2_f" x="854.917" y="-323.913" width="1522.17" height="1641.83" filterUnits="userSpaceOnUse" color-interpolation-filters="sRGB">
<feFlood flood-opacity="0" result="BackgroundImageFix"/>
<feBlend mode="normal" in="SourceGraphic" in2="BackgroundImageFix" result="shape"/>
<feGaussianBlur stdDeviation="75" result="effect1_foregroundBlur"/>
</filter>
<filter id="filter3_f" x="-153" y="-59" width="2226" height="453" filterUnits="userSpaceOnUse" color-interpolation-filters="sRGB">
<feFlood flood-opacity="0" result="BackgroundImageFix"/>
<feBlend mode="normal" in="SourceGraphic" in2="BackgroundImageFix" result="shape"/>
<feGaussianBlur stdDeviation="20.5" result="effect1_foregroundBlur"/>
</filter>
<linearGradient id="paint0_linear" x1="-70" y1="513" x2="732" y2="513" gradientUnits="userSpaceOnUse">
<stop stop-color="#C4C4C4"/>
<stop offset="1" stop-color="#C4C4C4" stop-opacity="0"/>
</linearGradient>
<linearGradient id="paint1_linear" x1="234" y1="-43" x2="234" y2="1037" gradientUnits="userSpaceOnUse">
<stop stop-color="#FF4AF7"/>
<stop offset="1" stop-color="#00CCFF"/>
</linearGradient>
<linearGradient id="paint2_linear" x1="0" y1="528" x2="802" y2="528" gradientUnits="userSpaceOnUse">
<stop stop-color="#C4C4C4"/>
<stop offset="1" stop-color="#C4C4C4" stop-opacity="0"/>
</linearGradient>
<linearGradient id="paint3_linear" x1="1616" y1="-43" x2="1616" y2="1037" gradientUnits="userSpaceOnUse">
<stop stop-color="#FF4AF7"/>
<stop offset="1" stop-color="#00CCFF"/>
</linearGradient>
<linearGradient id="paint4_linear" x1="960" y1="-18" x2="960" y2="353" gradientUnits="userSpaceOnUse">
<stop/>
<stop offset="1" stop-opacity="0"/>
</linearGradient>
</defs>
</svg>
