<svg width="16" height="14" viewBox="0 0 16 14" fill="none" xmlns="http://www.w3.org/2000/svg">
<path d="M15.1773 2.04425C14.9337 1.94277 14.6654 1.9161 14.4066 1.96762C14.1478 2.01915 13.9102 2.14654 13.724 2.33358L12 4.05758L8.94267 1.00025C8.69263 0.750284 8.35355 0.609863 8 0.609863C7.64645 0.609863 7.30737 0.750284 7.05733 1.00025L4 4.05758L2.276 2.33358C2.08953 2.14717 1.85198 2.02022 1.59338 1.9688C1.33477 1.91738 1.06673 1.94378 0.823127 2.04467C0.579528 2.14557 0.37131 2.31642 0.224798 2.53563C0.0782854 2.75485 5.62991e-05 3.01258 0 3.27625L0 10.3336C0.00105857 11.2173 0.352588 12.0645 0.97748 12.6894C1.60237 13.3143 2.4496 13.6659 3.33333 13.6669H12.6667C13.5504 13.6659 14.3976 13.3143 15.0225 12.6894C15.6474 12.0645 15.9989 11.2173 16 10.3336V3.27625C16.0001 3.01256 15.9219 2.75477 15.7755 2.53548C15.6291 2.31619 15.4209 2.14524 15.1773 2.04425ZM14.6667 10.3336C14.6667 10.864 14.456 11.3727 14.0809 11.7478C13.7058 12.1229 13.1971 12.3336 12.6667 12.3336H3.33333C2.8029 12.3336 2.29419 12.1229 1.91912 11.7478C1.54405 11.3727 1.33333 10.864 1.33333 10.3336V3.27625L3.52867 5.47158C3.65369 5.59656 3.82322 5.66677 4 5.66677C4.17678 5.66677 4.34631 5.59656 4.47133 5.47158L8 1.94291L11.5287 5.47158C11.6537 5.59656 11.8232 5.66677 12 5.66677C12.1768 5.66677 12.3463 5.59656 12.4713 5.47158L14.6667 3.27625V10.3336Z" fill="white"/>
</svg>
