<svg width="179" height="179" viewBox="0 0 179 179" fill="none" xmlns="http://www.w3.org/2000/svg">
<path opacity="0.65" d="M102.552 27.9688C61.3821 27.9688 27.9688 61.3821 27.9688 102.552C27.9688 143.722 61.3821 177.135 102.552 177.135C143.722 177.135 177.135 143.722 177.135 102.552C177.135 61.3821 143.722 27.9688 102.552 27.9688ZM102.552 162.219C69.6608 162.219 42.8854 135.443 42.8854 102.552C42.8854 69.6608 69.6608 42.8854 102.552 42.8854C135.443 42.8854 162.219 69.6608 162.219 102.552C162.219 135.443 135.443 162.219 102.552 162.219ZM95.0938 132.385H110.01V147.302H95.0938V132.385ZM107.102 58.1004C91.7375 55.8629 78.1633 65.335 74.0613 78.9092C72.7188 83.235 76.0004 87.6354 80.55 87.6354H82.0417C85.0996 87.6354 87.5608 85.4725 88.605 82.6383C90.9917 76.0004 98.0771 71.4508 105.759 73.0917C112.845 74.5833 118.065 81.5196 117.469 88.7542C116.723 98.7483 105.386 100.911 99.1958 110.234C99.1958 110.309 99.1213 110.309 99.1213 110.383C99.0467 110.533 98.9721 110.607 98.8975 110.756C98.2262 111.875 97.555 113.143 97.0329 114.485C96.9583 114.709 96.8092 114.858 96.7346 115.082C96.66 115.231 96.66 115.38 96.5854 115.604C95.6904 118.14 95.0938 121.198 95.0938 124.927H110.01C110.01 121.795 110.831 119.184 112.099 116.947C112.248 116.723 112.323 116.499 112.472 116.275C113.068 115.231 113.814 114.262 114.56 113.367C114.635 113.292 114.709 113.143 114.784 113.068C115.53 112.173 116.35 111.353 117.245 110.533C124.405 103.745 134.101 98.2262 132.087 83.9808C130.297 71.0033 120.079 60.0396 107.102 58.1004Z" fill="black"/>
<path d="M89.5003 14.9171C48.3303 14.9171 14.917 48.3305 14.917 89.5005C14.917 130.67 48.3303 164.084 89.5003 164.084C130.67 164.084 164.084 130.67 164.084 89.5005C164.084 48.3305 130.67 14.9171 89.5003 14.9171ZM89.5003 149.167C56.6091 149.167 29.8337 122.392 29.8337 89.5005C29.8337 56.6092 56.6091 29.8338 89.5003 29.8338C122.392 29.8338 149.167 56.6092 149.167 89.5005C149.167 122.392 122.392 149.167 89.5003 149.167ZM82.042 119.334H96.9587V134.25H82.042V119.334ZM94.0499 45.0488C78.6858 42.8113 65.1116 52.2834 61.0095 65.8575C59.667 70.1834 62.9487 74.5838 67.4983 74.5838H68.9899C72.0478 74.5838 74.5091 72.4209 75.5533 69.5867C77.9399 62.9488 85.0253 58.3992 92.7074 60.04C99.7928 61.5317 105.014 68.468 104.417 75.7025C103.671 85.6967 92.3345 87.8596 86.1441 97.1825C86.1441 97.2571 86.0695 97.2571 86.0695 97.3317C85.9949 97.4809 85.9203 97.5555 85.8458 97.7046C85.1745 98.8234 84.5033 100.091 83.9812 101.434C83.9066 101.658 83.7574 101.807 83.6828 102.03C83.6083 102.18 83.6083 102.329 83.5337 102.553C82.6387 105.088 82.042 108.146 82.042 111.875H96.9587C96.9587 108.743 97.7791 106.133 99.047 103.895C99.1962 103.671 99.2708 103.448 99.4199 103.224C100.017 102.18 100.762 101.21 101.508 100.315C101.583 100.24 101.657 100.091 101.732 100.017C102.478 99.1217 103.298 98.3013 104.193 97.4809C111.353 90.6938 121.049 85.1746 119.035 70.9292C117.245 57.9517 107.027 46.988 94.0499 45.0488Z" fill="white"/>
<path d="M89.5003 14.9171C48.3303 14.9171 14.917 48.3305 14.917 89.5005C14.917 130.67 48.3303 164.084 89.5003 164.084C130.67 164.084 164.084 130.67 164.084 89.5005C164.084 48.3305 130.67 14.9171 89.5003 14.9171ZM89.5003 149.167C56.6091 149.167 29.8337 122.392 29.8337 89.5005C29.8337 56.6092 56.6091 29.8338 89.5003 29.8338C122.392 29.8338 149.167 56.6092 149.167 89.5005C149.167 122.392 122.392 149.167 89.5003 149.167ZM82.042 119.334H96.9587V134.25H82.042V119.334ZM94.0499 45.0488C78.6858 42.8113 65.1116 52.2834 61.0095 65.8575C59.667 70.1834 62.9487 74.5838 67.4983 74.5838H68.9899C72.0478 74.5838 74.5091 72.4209 75.5533 69.5867C77.9399 62.9488 85.0253 58.3992 92.7074 60.04C99.7928 61.5317 105.014 68.468 104.417 75.7025C103.671 85.6967 92.3345 87.8596 86.1441 97.1825C86.1441 97.2571 86.0695 97.2571 86.0695 97.3317C85.9949 97.4809 85.9203 97.5555 85.8458 97.7046C85.1745 98.8234 84.5033 100.091 83.9812 101.434C83.9066 101.658 83.7574 101.807 83.6828 102.03C83.6083 102.18 83.6083 102.329 83.5337 102.553C82.6387 105.088 82.042 108.146 82.042 111.875H96.9587C96.9587 108.743 97.7791 106.133 99.047 103.895C99.1962 103.671 99.2708 103.448 99.4199 103.224C100.017 102.18 100.762 101.21 101.508 100.315C101.583 100.24 101.657 100.091 101.732 100.017C102.478 99.1217 103.298 98.3013 104.193 97.4809C111.353 90.6938 121.049 85.1746 119.035 70.9292C117.245 57.9517 107.027 46.988 94.0499 45.0488Z" fill="url(#paint0_linear_322_182)" fill-opacity="0.2"/>
<path d="M89.5003 14.9171C48.3303 14.9171 14.917 48.3305 14.917 89.5005C14.917 130.67 48.3303 164.084 89.5003 164.084C130.67 164.084 164.084 130.67 164.084 89.5005C164.084 48.3305 130.67 14.9171 89.5003 14.9171ZM89.5003 149.167C56.6091 149.167 29.8337 122.392 29.8337 89.5005C29.8337 56.6092 56.6091 29.8338 89.5003 29.8338C122.392 29.8338 149.167 56.6092 149.167 89.5005C149.167 122.392 122.392 149.167 89.5003 149.167ZM82.042 119.334H96.9587V134.25H82.042V119.334ZM94.0499 45.0488C78.6858 42.8113 65.1116 52.2834 61.0095 65.8575C59.667 70.1834 62.9487 74.5838 67.4983 74.5838H68.9899C72.0478 74.5838 74.5091 72.4209 75.5533 69.5867C77.9399 62.9488 85.0253 58.3992 92.7074 60.04C99.7928 61.5317 105.014 68.468 104.417 75.7025C103.671 85.6967 92.3345 87.8596 86.1441 97.1825C86.1441 97.2571 86.0695 97.2571 86.0695 97.3317C85.9949 97.4809 85.9203 97.5555 85.8458 97.7046C85.1745 98.8234 84.5033 100.091 83.9812 101.434C83.9066 101.658 83.7574 101.807 83.6828 102.03C83.6083 102.18 83.6083 102.329 83.5337 102.553C82.6387 105.088 82.042 108.146 82.042 111.875H96.9587C96.9587 108.743 97.7791 106.133 99.047 103.895C99.1962 103.671 99.2708 103.448 99.4199 103.224C100.017 102.18 100.762 101.21 101.508 100.315C101.583 100.24 101.657 100.091 101.732 100.017C102.478 99.1217 103.298 98.3013 104.193 97.4809C111.353 90.6938 121.049 85.1746 119.035 70.9292C117.245 57.9517 107.027 46.988 94.0499 45.0488Z" fill="url(#paint1_linear_322_182)"/>
<defs>
<linearGradient id="paint0_linear_322_182" x1="89.3397" y1="132.12" x2="89.3396" y2="41.554" gradientUnits="userSpaceOnUse">
<stop/>
<stop offset="1" stop-opacity="0"/>
</linearGradient>
<linearGradient id="paint1_linear_322_182" x1="89.5003" y1="14.9171" x2="89.5003" y2="164.084" gradientUnits="userSpaceOnUse">
<stop stop-color="white"/>
<stop offset="1" stop-color="#CCCCCC"/>
</linearGradient>
</defs>
</svg>
