<svg width="17" height="12" viewBox="0 0 17 12" fill="none" xmlns="http://www.w3.org/2000/svg">
<path d="M5.83306 9.91881L1.91406 5.99981C1.72653 5.81234 1.47223 5.70702 1.20706 5.70702C0.941897 5.70702 0.687589 5.81234 0.500062 5.99981C0.312591 6.18734 0.207275 6.44165 0.207275 6.70681C0.207275 6.97197 0.312591 7.22628 0.500062 7.41381L4.41906 11.3328C4.60479 11.5186 4.8253 11.666 5.06801 11.7666C5.31071 11.8671 5.57085 11.9189 5.83356 11.9189C6.09627 11.9189 6.35641 11.8671 6.59912 11.7666C6.84182 11.666 7.06233 11.5186 7.24806 11.3328L16.5001 2.08081C16.6875 1.89328 16.7928 1.63897 16.7928 1.37381C16.7928 1.10865 16.6875 0.854337 16.5001 0.66681C16.3125 0.479338 16.0582 0.374023 15.7931 0.374023C15.5279 0.374023 15.2736 0.479338 15.0861 0.66681L5.83306 9.91881Z" fill="url(#paint0_linear)"/>
<defs>
<linearGradient id="paint0_linear" x1="28.5325" y1="5.64582" x2="-20.5536" y2="17.0974" gradientUnits="userSpaceOnUse">
<stop offset="0.0550459" stop-color="#FF4AF7"/>
<stop offset="1" stop-color="#00CCFF"/>
</linearGradient>
</defs>
</svg>
