<svg width="9" height="77" viewBox="0 0 9 77" fill="none" xmlns="http://www.w3.org/2000/svg">
<g filter="url(#filter0_d_322_68)">
<path d="M3.9353 75.2929L5.34952 73.8787L3.9353 72.4645L2.52109 73.8787L3.9353 75.2929Z" stroke="url(#paint0_linear_322_68)"/>
</g>
<g clip-path="url(#clip0_322_68)">
<g filter="url(#filter1_d_322_68)">
<path fill-rule="evenodd" clip-rule="evenodd" d="M3.05664 67.7573V68.7573H4.05664V67.7573H3.05664ZM3.05664 63.7573V65.7573H4.05664V63.7573H3.05664ZM3.05664 59.7573V61.7573H4.05664L4.05664 59.7573H3.05664ZM3.05664 55.7573V57.7573H4.05664V55.7573H3.05664ZM3.05664 51.7573V53.7573H4.05664V51.7573H3.05664ZM3.05664 47.7573L3.05664 49.7573H4.05664V47.7573H3.05664ZM3.05664 43.7573L3.05664 45.7573H4.05664V43.7573H3.05664ZM3.05664 39.7573V41.7573H4.05664V39.7573H3.05664ZM3.05664 35.7573V37.7573H4.05664V35.7573H3.05664ZM3.05664 31.7573V33.7573H4.05664L4.05664 31.7573H3.05664ZM3.05664 27.7573V29.7573H4.05664V27.7573H3.05664ZM3.05664 23.7573V25.7573H4.05664V23.7573H3.05664ZM3.05664 19.7573L3.05664 21.7573H4.05664V19.7573H3.05664ZM3.05664 15.7573L3.05664 17.7573H4.05664V15.7573H3.05664ZM3.05664 11.7573V13.7573H4.05664V11.7573H3.05664ZM3.05664 7.75732V9.75733H4.05664V7.75732H3.05664ZM3.05664 3.75732L3.05664 5.75732H4.05664V3.75732H3.05664ZM3.05664 -0.242676L3.05664 1.75732H4.05664V-0.242676H3.05664ZM3.05664 -4.24268V-2.24268H4.05664V-4.24268H3.05664ZM3.05664 -8.24268V-6.24268H4.05664V-8.24268H3.05664ZM3.05664 -12.2427V-10.2427H4.05664L4.05664 -12.2427H3.05664ZM3.05664 -16.2427V-14.2427H4.05664V-16.2427H3.05664ZM3.05664 -20.2427V-18.2427H4.05664V-20.2427H3.05664ZM3.05664 -24.2427L3.05664 -22.2427H4.05664V-24.2427H3.05664ZM3.05664 -28.2427L3.05664 -26.2427H4.05664V-28.2427H3.05664ZM3.05664 -31.2427V-30.2427H4.05664V-31.2427H3.05664Z" fill="#454D4C"/>
<path fill-rule="evenodd" clip-rule="evenodd" d="M3.05664 67.7573V68.7573H4.05664V67.7573H3.05664ZM3.05664 63.7573V65.7573H4.05664V63.7573H3.05664ZM3.05664 59.7573V61.7573H4.05664L4.05664 59.7573H3.05664ZM3.05664 55.7573V57.7573H4.05664V55.7573H3.05664ZM3.05664 51.7573V53.7573H4.05664V51.7573H3.05664ZM3.05664 47.7573L3.05664 49.7573H4.05664V47.7573H3.05664ZM3.05664 43.7573L3.05664 45.7573H4.05664V43.7573H3.05664ZM3.05664 39.7573V41.7573H4.05664V39.7573H3.05664ZM3.05664 35.7573V37.7573H4.05664V35.7573H3.05664ZM3.05664 31.7573V33.7573H4.05664L4.05664 31.7573H3.05664ZM3.05664 27.7573V29.7573H4.05664V27.7573H3.05664ZM3.05664 23.7573V25.7573H4.05664V23.7573H3.05664ZM3.05664 19.7573L3.05664 21.7573H4.05664V19.7573H3.05664ZM3.05664 15.7573L3.05664 17.7573H4.05664V15.7573H3.05664ZM3.05664 11.7573V13.7573H4.05664V11.7573H3.05664ZM3.05664 7.75732V9.75733H4.05664V7.75732H3.05664ZM3.05664 3.75732L3.05664 5.75732H4.05664V3.75732H3.05664ZM3.05664 -0.242676L3.05664 1.75732H4.05664V-0.242676H3.05664ZM3.05664 -4.24268V-2.24268H4.05664V-4.24268H3.05664ZM3.05664 -8.24268V-6.24268H4.05664V-8.24268H3.05664ZM3.05664 -12.2427V-10.2427H4.05664L4.05664 -12.2427H3.05664ZM3.05664 -16.2427V-14.2427H4.05664V-16.2427H3.05664ZM3.05664 -20.2427V-18.2427H4.05664V-20.2427H3.05664ZM3.05664 -24.2427L3.05664 -22.2427H4.05664V-24.2427H3.05664ZM3.05664 -28.2427L3.05664 -26.2427H4.05664V-28.2427H3.05664ZM3.05664 -31.2427V-30.2427H4.05664V-31.2427H3.05664Z" fill="#111212" fill-opacity="0.71"/>
</g>
</g>
<g opacity="0.45" filter="url(#filter2_d_322_68)">
<path d="M3.9353 38.4142L4.64241 37.7071L3.9353 37L3.2282 37.7071L3.9353 38.4142Z" stroke="url(#paint1_linear_322_68)"/>
</g>
<g clip-path="url(#clip1_322_68)">
<g filter="url(#filter3_d_322_68)">
<path fill-rule="evenodd" clip-rule="evenodd" d="M3.05664 32V33H4.05664V32H3.05664ZM3.05664 28V30H4.05664V28H3.05664ZM3.05664 24V26H4.05664L4.05664 24H3.05664ZM3.05664 20V22H4.05664V20H3.05664ZM3.05664 16V18H4.05664V16H3.05664ZM3.05664 12L3.05664 14H4.05664V12H3.05664ZM3.05664 8L3.05664 10H4.05664V8H3.05664ZM3.05664 4V6H4.05664V4H3.05664ZM3.05664 0V2H4.05664V0H3.05664ZM3.05664 -4V-2H4.05664L4.05664 -4H3.05664ZM3.05664 -8V-6H4.05664V-8H3.05664ZM3.05664 -12V-10H4.05664V-12H3.05664ZM3.05664 -16L3.05664 -14H4.05664V-16H3.05664ZM3.05664 -20L3.05664 -18H4.05664V-20H3.05664ZM3.05664 -24V-22H4.05664V-24H3.05664ZM3.05664 -28V-26H4.05664V-28H3.05664ZM3.05664 -32L3.05664 -30H4.05664V-32H3.05664ZM3.05664 -36L3.05664 -34H4.05664V-36H3.05664ZM3.05664 -40V-38H4.05664V-40H3.05664ZM3.05664 -44V-42H4.05664V-44H3.05664ZM3.05664 -48V-46H4.05664L4.05664 -48H3.05664ZM3.05664 -52V-50H4.05664V-52H3.05664ZM3.05664 -56V-54H4.05664V-56H3.05664ZM3.05664 -60L3.05664 -58H4.05664V-60H3.05664ZM3.05664 -64L3.05664 -62H4.05664V-64H3.05664ZM3.05664 -67V-66H4.05664V-67H3.05664Z" fill="#454D4C"/>
<path fill-rule="evenodd" clip-rule="evenodd" d="M3.05664 32V33H4.05664V32H3.05664ZM3.05664 28V30H4.05664V28H3.05664ZM3.05664 24V26H4.05664L4.05664 24H3.05664ZM3.05664 20V22H4.05664V20H3.05664ZM3.05664 16V18H4.05664V16H3.05664ZM3.05664 12L3.05664 14H4.05664V12H3.05664ZM3.05664 8L3.05664 10H4.05664V8H3.05664ZM3.05664 4V6H4.05664V4H3.05664ZM3.05664 0V2H4.05664V0H3.05664ZM3.05664 -4V-2H4.05664L4.05664 -4H3.05664ZM3.05664 -8V-6H4.05664V-8H3.05664ZM3.05664 -12V-10H4.05664V-12H3.05664ZM3.05664 -16L3.05664 -14H4.05664V-16H3.05664ZM3.05664 -20L3.05664 -18H4.05664V-20H3.05664ZM3.05664 -24V-22H4.05664V-24H3.05664ZM3.05664 -28V-26H4.05664V-28H3.05664ZM3.05664 -32L3.05664 -30H4.05664V-32H3.05664ZM3.05664 -36L3.05664 -34H4.05664V-36H3.05664ZM3.05664 -40V-38H4.05664V-40H3.05664ZM3.05664 -44V-42H4.05664V-44H3.05664ZM3.05664 -48V-46H4.05664L4.05664 -48H3.05664ZM3.05664 -52V-50H4.05664V-52H3.05664ZM3.05664 -56V-54H4.05664V-56H3.05664ZM3.05664 -60L3.05664 -58H4.05664V-60H3.05664ZM3.05664 -64L3.05664 -62H4.05664V-64H3.05664ZM3.05664 -67V-66H4.05664V-67H3.05664Z" fill="#111212" fill-opacity="0.71"/>
</g>
</g>
<g filter="url(#filter4_d_322_68)">
<path d="M3.9353 3.53557L5.34952 2.12136L3.9353 0.707142L2.52109 2.12136L3.9353 3.53557Z" stroke="url(#paint2_linear_322_68)"/>
</g>
<g filter="url(#filter5_d_322_68)">
<path d="M2.93552 38.8298L2.22842 39.5369L0.399996 37.7084L2.22844 35.88L2.93555 36.5871L1.81421 37.7084L2.93552 38.8298Z" fill="url(#paint3_linear_322_68)"/>
</g>
<g filter="url(#filter6_d_322_68)">
<path d="M4.82833 35.8671L4.12122 35.16L5.1212 34.16L8.65674 37.6956L5.1212 41.2311L4.1212 40.2311L4.82831 39.524L5.1212 39.8169L7.24252 37.6956L5.1212 35.5742L4.82833 35.8671Z" fill="url(#paint4_linear_322_68)"/>
</g>
<g filter="url(#filter7_d_322_68)">
<path d="M5.00002 38.8168L5.70713 39.5239L7.53555 37.6955L5.70711 35.8671L5 36.5742L6.12134 37.6955L5.00002 38.8168Z" fill="url(#paint5_linear_322_68)"/>
</g>
<defs>
<filter id="filter0_d_322_68" x="1.81396" y="71.7573" width="4.24268" height="5.24268" filterUnits="userSpaceOnUse" color-interpolation-filters="sRGB">
<feFlood flood-opacity="0" result="BackgroundImageFix"/>
<feColorMatrix in="SourceAlpha" type="matrix" values="0 0 0 0 0 0 0 0 0 0 0 0 0 0 0 0 0 0 127 0" result="hardAlpha"/>
<feOffset dy="1"/>
<feColorMatrix type="matrix" values="0 0 0 0 0 0 0 0 0 0 0 0 0 0 0 0 0 0 0.25 0"/>
<feBlend mode="normal" in2="BackgroundImageFix" result="effect1_dropShadow_322_68"/>
<feBlend mode="normal" in="SourceGraphic" in2="effect1_dropShadow_322_68" result="shape"/>
</filter>
<filter id="filter1_d_322_68" x="3.05664" y="-31.2427" width="1" height="101" filterUnits="userSpaceOnUse" color-interpolation-filters="sRGB">
<feFlood flood-opacity="0" result="BackgroundImageFix"/>
<feColorMatrix in="SourceAlpha" type="matrix" values="0 0 0 0 0 0 0 0 0 0 0 0 0 0 0 0 0 0 127 0" result="hardAlpha"/>
<feOffset dy="1"/>
<feColorMatrix type="matrix" values="0 0 0 0 0 0 0 0 0 0 0 0 0 0 0 0 0 0 0.25 0"/>
<feBlend mode="normal" in2="BackgroundImageFix" result="effect1_dropShadow_322_68"/>
<feBlend mode="normal" in="SourceGraphic" in2="effect1_dropShadow_322_68" result="shape"/>
</filter>
<filter id="filter2_d_322_68" x="2.521" y="36.293" width="2.82861" height="3.82837" filterUnits="userSpaceOnUse" color-interpolation-filters="sRGB">
<feFlood flood-opacity="0" result="BackgroundImageFix"/>
<feColorMatrix in="SourceAlpha" type="matrix" values="0 0 0 0 0 0 0 0 0 0 0 0 0 0 0 0 0 0 127 0" result="hardAlpha"/>
<feOffset dy="1"/>
<feColorMatrix type="matrix" values="0 0 0 0 0 0 0 0 0 0 0 0 0 0 0 0 0 0 0.25 0"/>
<feBlend mode="normal" in2="BackgroundImageFix" result="effect1_dropShadow_322_68"/>
<feBlend mode="normal" in="SourceGraphic" in2="effect1_dropShadow_322_68" result="shape"/>
</filter>
<filter id="filter3_d_322_68" x="3.05664" y="-67" width="1" height="101" filterUnits="userSpaceOnUse" color-interpolation-filters="sRGB">
<feFlood flood-opacity="0" result="BackgroundImageFix"/>
<feColorMatrix in="SourceAlpha" type="matrix" values="0 0 0 0 0 0 0 0 0 0 0 0 0 0 0 0 0 0 127 0" result="hardAlpha"/>
<feOffset dy="1"/>
<feColorMatrix type="matrix" values="0 0 0 0 0 0 0 0 0 0 0 0 0 0 0 0 0 0 0.25 0"/>
<feBlend mode="normal" in2="BackgroundImageFix" result="effect1_dropShadow_322_68"/>
<feBlend mode="normal" in="SourceGraphic" in2="effect1_dropShadow_322_68" result="shape"/>
</filter>
<filter id="filter4_d_322_68" x="1.81396" y="0" width="4.24268" height="5.24268" filterUnits="userSpaceOnUse" color-interpolation-filters="sRGB">
<feFlood flood-opacity="0" result="BackgroundImageFix"/>
<feColorMatrix in="SourceAlpha" type="matrix" values="0 0 0 0 0 0 0 0 0 0 0 0 0 0 0 0 0 0 127 0" result="hardAlpha"/>
<feOffset dy="1"/>
<feColorMatrix type="matrix" values="0 0 0 0 0 0 0 0 0 0 0 0 0 0 0 0 0 0 0.25 0"/>
<feBlend mode="normal" in2="BackgroundImageFix" result="effect1_dropShadow_322_68"/>
<feBlend mode="normal" in="SourceGraphic" in2="effect1_dropShadow_322_68" result="shape"/>
</filter>
<filter id="filter5_d_322_68" x="0.399902" y="35.88" width="2.53564" height="4.65686" filterUnits="userSpaceOnUse" color-interpolation-filters="sRGB">
<feFlood flood-opacity="0" result="BackgroundImageFix"/>
<feColorMatrix in="SourceAlpha" type="matrix" values="0 0 0 0 0 0 0 0 0 0 0 0 0 0 0 0 0 0 127 0" result="hardAlpha"/>
<feOffset dy="1"/>
<feColorMatrix type="matrix" values="0 0 0 0 0 0 0 0 0 0 0 0 0 0 0 0 0 0 0.25 0"/>
<feBlend mode="normal" in2="BackgroundImageFix" result="effect1_dropShadow_322_68"/>
<feBlend mode="normal" in="SourceGraphic" in2="effect1_dropShadow_322_68" result="shape"/>
</filter>
<filter id="filter6_d_322_68" x="4.12109" y="34.16" width="4.53564" height="8.07104" filterUnits="userSpaceOnUse" color-interpolation-filters="sRGB">
<feFlood flood-opacity="0" result="BackgroundImageFix"/>
<feColorMatrix in="SourceAlpha" type="matrix" values="0 0 0 0 0 0 0 0 0 0 0 0 0 0 0 0 0 0 127 0" result="hardAlpha"/>
<feOffset dy="1"/>
<feColorMatrix type="matrix" values="0 0 0 0 0 0 0 0 0 0 0 0 0 0 0 0 0 0 0.25 0"/>
<feBlend mode="normal" in2="BackgroundImageFix" result="effect1_dropShadow_322_68"/>
<feBlend mode="normal" in="SourceGraphic" in2="effect1_dropShadow_322_68" result="shape"/>
</filter>
<filter id="filter7_d_322_68" x="5" y="35.8671" width="2.53564" height="4.65686" filterUnits="userSpaceOnUse" color-interpolation-filters="sRGB">
<feFlood flood-opacity="0" result="BackgroundImageFix"/>
<feColorMatrix in="SourceAlpha" type="matrix" values="0 0 0 0 0 0 0 0 0 0 0 0 0 0 0 0 0 0 127 0" result="hardAlpha"/>
<feOffset dy="1"/>
<feColorMatrix type="matrix" values="0 0 0 0 0 0 0 0 0 0 0 0 0 0 0 0 0 0 0.25 0"/>
<feBlend mode="normal" in2="BackgroundImageFix" result="effect1_dropShadow_322_68"/>
<feBlend mode="normal" in="SourceGraphic" in2="effect1_dropShadow_322_68" result="shape"/>
</filter>
<linearGradient id="paint0_linear_322_68" x1="6.05663" y1="72.8787" x2="0.556625" y2="72.8787" gradientUnits="userSpaceOnUse">
<stop stop-color="#797E7D"/>
<stop offset="1" stop-color="#515857"/>
</linearGradient>
<linearGradient id="paint1_linear_322_68" x1="5.34952" y1="37.0404" x2="1.68285" y2="37.0404" gradientUnits="userSpaceOnUse">
<stop stop-color="#797E7D"/>
<stop offset="1" stop-color="#515857"/>
</linearGradient>
<linearGradient id="paint2_linear_322_68" x1="6.05663" y1="1.12134" x2="0.556625" y2="1.12134" gradientUnits="userSpaceOnUse">
<stop stop-color="#797E7D"/>
<stop offset="1" stop-color="#515857"/>
</linearGradient>
<linearGradient id="paint3_linear_322_68" x1="2.16778" y1="39.4763" x2="5.70331" y2="35.9407" gradientUnits="userSpaceOnUse">
<stop stop-color="#797E7D"/>
<stop offset="1" stop-color="#515857"/>
</linearGradient>
<linearGradient id="paint4_linear_322_68" x1="3.35345" y1="39.4633" x2="6.88898" y2="35.9278" gradientUnits="userSpaceOnUse">
<stop stop-color="#797E7D"/>
<stop offset="1" stop-color="#515857"/>
</linearGradient>
<linearGradient id="paint5_linear_322_68" x1="5.76777" y1="39.4633" x2="2.23223" y2="35.9278" gradientUnits="userSpaceOnUse">
<stop stop-color="#797E7D"/>
<stop offset="1" stop-color="#515857"/>
</linearGradient>
<clipPath id="clip0_322_68">
<rect width="25.7574" height="5" fill="white" transform="matrix(0 -1 -1 0 6.05664 68.7573)"/>
</clipPath>
<clipPath id="clip1_322_68">
<rect width="25.7574" height="5" fill="white" transform="matrix(0 -1 -1 0 6.05664 33)"/>
</clipPath>
</defs>
</svg>
