<?xml version="1.0" encoding="UTF-8"?>
<svg id="SVGDoc" width="16" height="16" xmlns="http://www.w3.org/2000/svg" version="1.1"
     viewBox="0 0 16 16">
    <defs></defs>
    <desc>Generated with Avocode.</desc>
    <g>
        <g>
            <title>Vector</title>
            <path d="M14.9282,3.99996v2.14317l1.0718,1.85648l-1.0718,1.85647v2.14342l-1.8565,1.0719l-1.0719,1.8565h-2.14344l-1.85648,1.0719l-1.8562,-1.0716h-2.14344l-1.07188,-1.8565l-1.85648,-1.0719v-2.14344l-1.07188,-1.85648l1.07188,-1.85647v-2.14345l1.85616,-1.0716l1.07188,-1.85648h2.14344l1.85648,-1.07188l1.85647,1.07188h2.14349l1.0716,1.8562l1.8564,1.07188zM12.144,6.40769c0.2931,-0.29309 0.2931,-0.76855 0,-1.06163l-0.6194,-0.61938c-0.2931,-0.29309 -0.7685,-0.29309 -1.0616,0l-3.72651,3.72677l-1.19999,-1.19999c-0.29309,-0.29308 -0.76855,-0.29308 -1.06163,0l-0.61938,0.61938c-0.29309,0.29309 -0.29309,0.76855 0,1.06164l2.33968,2.33972c0.14916,0.1491 0.34564,0.2217 0.54132,0.2189c0.19564,0.0027 0.39216,-0.0698 0.54132,-0.2189z"
                   ></path>
        </g>
    </g>
</svg>
